G04*
G04 #@! TF.GenerationSoftware,Altium Limited,Altium Designer,21.3.2 (30)*
G04*
G04 Layer_Color=8388736*
%FSTAX25Y25*%
%MOIN*%
G70*
G04*
G04 #@! TF.SameCoordinates,F71A3992-D9C6-49B2-A255-B3BA7863061E*
G04*
G04*
G04 #@! TF.FilePolarity,Negative*
G04*
G01*
G75*
%ADD17R,0.08300X0.08300*%
%ADD18C,0.08300*%
%ADD19C,0.15800*%
%ADD20R,0.15800X0.15800*%
%ADD21R,0.08800X0.08800*%
%ADD22C,0.08800*%
%ADD23C,0.12800*%
%ADD24R,0.12800X0.12800*%
%ADD25R,0.15800X0.15800*%
%ADD26R,0.09300X0.09300*%
%ADD27C,0.09300*%
%ADD28R,0.08300X0.08300*%
%ADD29C,0.08706*%
%ADD30R,0.08706X0.08706*%
%ADD31R,0.08706X0.08706*%
%ADD32O,0.07400X0.10800*%
D17*
X0158Y0214D02*
D03*
Y0394D02*
D03*
D18*
Y0224D02*
D03*
Y0234D02*
D03*
Y0244D02*
D03*
Y0254D02*
D03*
Y0264D02*
D03*
Y0274D02*
D03*
Y0284D02*
D03*
Y0294D02*
D03*
Y0304D02*
D03*
Y0314D02*
D03*
Y0324D02*
D03*
Y0334D02*
D03*
Y0344D02*
D03*
Y0354D02*
D03*
Y0364D02*
D03*
Y0374D02*
D03*
Y0384D02*
D03*
X0058Y0394D02*
D03*
Y0384D02*
D03*
Y0374D02*
D03*
Y0364D02*
D03*
Y0354D02*
D03*
Y0344D02*
D03*
Y0334D02*
D03*
Y0324D02*
D03*
Y0314D02*
D03*
Y0304D02*
D03*
Y0294D02*
D03*
Y0284D02*
D03*
Y0274D02*
D03*
Y0264D02*
D03*
Y0254D02*
D03*
Y0244D02*
D03*
Y0234D02*
D03*
Y0224D02*
D03*
Y0214D02*
D03*
X02695Y0299D02*
D03*
Y0309D02*
D03*
Y0329D02*
D03*
X0238Y0363D02*
D03*
Y0353D02*
D03*
Y0343D02*
D03*
Y0333D02*
D03*
Y0323D02*
D03*
Y0313D02*
D03*
Y0303D02*
D03*
X02065Y0302D02*
D03*
Y0312D02*
D03*
Y0322D02*
D03*
Y0342D02*
D03*
Y0352D02*
D03*
Y0362D02*
D03*
X0268Y0021D02*
D03*
Y0052D02*
D03*
X0206Y02225D02*
D03*
Y02325D02*
D03*
Y02525D02*
D03*
X0269Y0367D02*
D03*
Y0357D02*
D03*
Y0347D02*
D03*
X001Y02855D02*
D03*
Y02755D02*
D03*
Y02655D02*
D03*
D19*
X00225Y00175D02*
D03*
X01795D02*
D03*
X00335Y0151D02*
D03*
Y01105D02*
D03*
D20*
X00225Y00875D02*
D03*
X01795D02*
D03*
D21*
X0124Y01075D02*
D03*
D22*
X0154D02*
D03*
D23*
X01085Y01195D02*
D03*
X00605Y01675D02*
D03*
X01085D02*
D03*
D24*
X00845Y01095D02*
D03*
X00605Y01195D02*
D03*
D25*
X00335Y0171D02*
D03*
Y01305D02*
D03*
D26*
X0127Y0128D02*
D03*
X01415Y0176D02*
D03*
D27*
X01265D02*
D03*
X01585Y0128D02*
D03*
X0158Y0176D02*
D03*
X01735D02*
D03*
X0174Y0128D02*
D03*
X0142D02*
D03*
X01885Y0176D02*
D03*
X0189Y0128D02*
D03*
D28*
X02695Y0319D02*
D03*
X0238Y0373D02*
D03*
X02065Y0332D02*
D03*
Y0372D02*
D03*
X0268Y0031D02*
D03*
Y0042D02*
D03*
X0206Y02425D02*
D03*
X0269Y0377D02*
D03*
X001Y02955D02*
D03*
D29*
X0041Y0214D02*
D03*
Y0224D02*
D03*
Y0234D02*
D03*
Y0244D02*
D03*
Y0254D02*
D03*
Y0264D02*
D03*
Y0274D02*
D03*
Y0284D02*
D03*
Y0294D02*
D03*
Y0304D02*
D03*
Y0314D02*
D03*
Y0324D02*
D03*
Y0334D02*
D03*
Y0344D02*
D03*
Y0354D02*
D03*
Y0364D02*
D03*
Y0374D02*
D03*
Y0384D02*
D03*
Y0394D02*
D03*
X02055Y0015D02*
D03*
X02155D02*
D03*
X02255D02*
D03*
X02355D02*
D03*
X02455D02*
D03*
X01745Y0384D02*
D03*
Y0374D02*
D03*
Y0364D02*
D03*
Y0354D02*
D03*
Y0344D02*
D03*
Y0334D02*
D03*
Y0324D02*
D03*
Y0314D02*
D03*
Y0304D02*
D03*
Y0294D02*
D03*
Y0284D02*
D03*
Y0274D02*
D03*
Y0264D02*
D03*
Y0254D02*
D03*
Y0244D02*
D03*
Y0234D02*
D03*
Y0224D02*
D03*
X02065Y0386D02*
D03*
X0242Y01485D02*
D03*
D30*
X02455Y0067D02*
D03*
X02355D02*
D03*
X02255D02*
D03*
X02155D02*
D03*
X02055D02*
D03*
X0212Y014845D02*
D03*
D31*
X01745Y0394D02*
D03*
Y0214D02*
D03*
X02065Y0396D02*
D03*
D32*
X02125Y01055D02*
D03*
X02225D02*
D03*
X02325D02*
D03*
X01745Y0106D02*
D03*
X01845D02*
D03*
X01945D02*
D03*
M02*
