G04*
G04 #@! TF.GenerationSoftware,Altium Limited,Altium Designer,21.3.2 (30)*
G04*
G04 Layer_Physical_Order=1*
G04 Layer_Color=255*
%FSTAX24Y24*%
%MOIN*%
G70*
G04*
G04 #@! TF.SameCoordinates,F68F6C76-AA82-476B-A51A-8D37A50AFAF4*
G04*
G04*
G04 #@! TF.FilePolarity,Positive*
G04*
G01*
G75*
%ADD33C,0.0150*%
%ADD34C,0.0250*%
%ADD35C,0.0500*%
%ADD36R,0.0750X0.0750*%
%ADD37C,0.0750*%
%ADD38C,0.1500*%
%ADD39R,0.1500X0.1500*%
%ADD40R,0.0800X0.0800*%
%ADD41C,0.0800*%
%ADD42C,0.1200*%
%ADD43R,0.1200X0.1200*%
%ADD44R,0.1500X0.1500*%
%ADD45R,0.0850X0.0850*%
%ADD46C,0.0850*%
%ADD47R,0.0750X0.0750*%
%ADD48C,0.0791*%
%ADD49R,0.0791X0.0791*%
%ADD50R,0.0791X0.0791*%
%ADD51O,0.0660X0.1000*%
G36*
X02885Y04155D02*
Y0011D01*
X02785Y0001D01*
X0011D01*
X0001Y0011D01*
Y003846D01*
X000348Y00385D01*
X000451Y003601D01*
X001108Y002944D01*
X001357Y002841D01*
X001877D01*
X001889Y002591D01*
X0014Y002102D01*
Y0018D01*
X0031D01*
Y002102D01*
X002611Y002591D01*
X002623Y002841D01*
X010493D01*
X010742Y002944D01*
X012846Y005048D01*
X01845D01*
X018699Y005151D01*
X019655Y006107D01*
X019905Y006055D01*
Y006055D01*
X025195D01*
Y006294D01*
X0263D01*
X0263Y006294D01*
X026587Y006413D01*
X027937Y007763D01*
X027937Y007763D01*
X028056Y00805D01*
Y032214D01*
X028056Y032214D01*
X028056Y032214D01*
Y033562D01*
X028056Y033562D01*
X027996Y033706D01*
X027937Y033849D01*
X027937Y033849D01*
X027849Y033937D01*
X027562Y034056D01*
X027562Y034056D01*
X027281D01*
X027178Y034306D01*
X027375Y034503D01*
Y03465D01*
X0269D01*
X026425D01*
Y034503D01*
X026622Y034306D01*
X026519Y034056D01*
X026268D01*
X026006Y034318D01*
Y036891D01*
X026029Y036908D01*
X026275Y036784D01*
Y036441D01*
X026516Y0362D01*
X026275Y035959D01*
Y035441D01*
X026622Y035094D01*
X026425Y034897D01*
Y03475D01*
X0269D01*
X027375D01*
Y034897D01*
X027178Y035094D01*
X02749Y035406D01*
X027599Y035451D01*
X028349Y036201D01*
X028452Y03645D01*
Y04125D01*
X028349Y041499D01*
X028049Y041799D01*
X0278Y041902D01*
X00205D01*
X001801Y041799D01*
X001151Y041149D01*
X001048Y0409D01*
Y032D01*
X001151Y031751D01*
X001751Y031151D01*
X002Y031048D01*
X003482D01*
X003619Y030831D01*
X003455Y030667D01*
Y030133D01*
X003687Y0299D01*
X003455Y029667D01*
Y029133D01*
X003687Y0289D01*
X003455Y028667D01*
Y028252D01*
X001856Y026653D01*
X001625Y026749D01*
Y026809D01*
X001384Y02705D01*
X001625Y027291D01*
Y027809D01*
X001278Y028156D01*
X001475Y028353D01*
Y0285D01*
X001D01*
X000525D01*
Y028353D01*
X000722Y028156D01*
X000375Y027809D01*
Y027291D01*
X000616Y02705D01*
X000375Y026809D01*
Y026291D01*
X000741Y025925D01*
X000801D01*
X000897Y025694D01*
X000451Y025249D01*
X000348Y025D01*
X0001Y025004D01*
Y04155D01*
X00115Y0426D01*
X0278D01*
X02885Y04155D01*
D02*
G37*
G36*
X023175Y037328D02*
Y036675D01*
X023175D01*
X023175Y036425D01*
Y036041D01*
X023522Y035694D01*
X023325Y035497D01*
Y03535D01*
X0238D01*
X024275D01*
Y035378D01*
X024899Y036001D01*
X024944Y036111D01*
X025194Y036061D01*
Y03415D01*
X025194Y03415D01*
X025297Y033902D01*
X025236Y033749D01*
X025171Y033652D01*
X024389D01*
X024253Y033869D01*
X024425Y034041D01*
Y034559D01*
X024078Y034906D01*
X024275Y035103D01*
Y03525D01*
X0238D01*
X023325D01*
Y035103D01*
X023522Y034906D01*
X023175Y034559D01*
Y034041D01*
X023416Y0338D01*
X023175Y033559D01*
Y033041D01*
X023416Y0328D01*
X023175Y032559D01*
Y032041D01*
X023416Y0318D01*
X023175Y031559D01*
Y031041D01*
X023416Y0308D01*
X023175Y030559D01*
Y030272D01*
X020366Y027463D01*
X02016Y027595D01*
X020152Y027603D01*
Y029488D01*
X020383Y029583D01*
X020391Y029575D01*
X020909D01*
X021275Y029941D01*
Y030459D01*
X021034Y0307D01*
X021275Y030941D01*
Y031459D01*
X021034Y0317D01*
X021275Y031941D01*
Y032325D01*
X021275Y032575D01*
X021275D01*
Y033825D01*
X021275D01*
X021275Y034075D01*
Y034459D01*
X021034Y0347D01*
X021275Y034941D01*
Y035459D01*
X021034Y0357D01*
X021275Y035941D01*
Y036325D01*
X021275Y036575D01*
X021275D01*
Y037598D01*
X022904D01*
X023175Y037328D01*
D02*
G37*
G36*
X00415Y020905D02*
X004305D01*
X004398Y020866D01*
Y01833D01*
X00435Y0181D01*
X00235D01*
Y0161D01*
X002794D01*
X002898Y01585D01*
X0025Y015452D01*
Y01515D01*
X00335D01*
Y01505D01*
X0025D01*
Y014748D01*
X002948Y0143D01*
X002877Y01405D01*
X00235D01*
Y01205D01*
X002794D01*
X002898Y0118D01*
X0025Y011402D01*
Y0111D01*
X00335D01*
Y01105D01*
X0034D01*
Y0102D01*
X003702D01*
X004049Y010547D01*
X004344Y010488D01*
X004417Y01031D01*
X00471Y010017D01*
X005093Y009859D01*
X007807D01*
X00819Y010017D01*
X008272Y0101D01*
X0093D01*
Y011276D01*
X009531Y011372D01*
X010598Y010304D01*
Y009288D01*
X010701Y009039D01*
X012589Y007151D01*
X012838Y007048D01*
X018124D01*
X01822Y006817D01*
X017904Y006502D01*
X01215D01*
X011901Y006399D01*
X010104Y004602D01*
X002146D01*
X001452Y005296D01*
Y00775D01*
X00325D01*
Y00975D01*
X001452D01*
Y019254D01*
X003366Y021168D01*
X003657Y021142D01*
X003895Y020905D01*
X00405D01*
Y0214D01*
X00415D01*
Y020905D01*
D02*
G37*
G36*
X017059Y04044D02*
X017044Y040404D01*
X017044Y040404D01*
Y040045D01*
X016805D01*
Y038755D01*
X016805D01*
X016805Y038505D01*
Y038133D01*
X017037Y0379D01*
X016805Y037667D01*
Y037133D01*
X017037Y0369D01*
X016805Y036667D01*
Y036133D01*
X017037Y0359D01*
X016805Y035667D01*
Y035133D01*
X017144Y034794D01*
X016955Y034605D01*
Y03445D01*
X01745D01*
Y03435D01*
X016955D01*
Y034195D01*
X017144Y034006D01*
X016805Y033667D01*
Y033133D01*
X017037Y0329D01*
X016805Y032667D01*
Y032133D01*
X017037Y0319D01*
X016805Y031667D01*
Y031133D01*
X017037Y0309D01*
X016805Y030667D01*
Y030133D01*
X017037Y0299D01*
X016805Y029667D01*
Y029133D01*
X017037Y0289D01*
X016805Y028667D01*
Y028133D01*
X017037Y0279D01*
X016805Y027667D01*
Y027133D01*
X017037Y0269D01*
X016805Y026667D01*
Y026133D01*
X017037Y0259D01*
X016805Y025667D01*
Y025133D01*
X017037Y0249D01*
X016805Y024667D01*
Y024133D01*
X017037Y0239D01*
X016805Y023667D01*
Y023133D01*
X017037Y0229D01*
X016805Y022667D01*
Y022295D01*
X016805Y022045D01*
X016805D01*
Y020755D01*
X018095D01*
X018298Y020641D01*
Y02015D01*
X018401Y019901D01*
X019398Y018904D01*
Y018333D01*
X019167Y018237D01*
X01913Y018275D01*
X01857D01*
X018246Y01795D01*
X0181Y017904D01*
X017954Y01795D01*
X01763Y018275D01*
X01707D01*
X01671Y017915D01*
X016575Y017895D01*
X01644Y017915D01*
X01608Y018275D01*
X015622D01*
X014352Y019546D01*
Y028234D01*
X015012Y028895D01*
X015053Y02889D01*
X015175Y028659D01*
Y028141D01*
X015416Y0279D01*
X015175Y027659D01*
Y027141D01*
X015416Y0269D01*
X015175Y026659D01*
Y026141D01*
X015416Y0259D01*
X015175Y025659D01*
Y025141D01*
X015416Y0249D01*
X015175Y024659D01*
Y024141D01*
X015416Y0239D01*
X015175Y023659D01*
Y023141D01*
X015416Y0229D01*
X015175Y022659D01*
Y022275D01*
X015175Y022025D01*
X015175D01*
Y020775D01*
X016425D01*
Y022025D01*
X016425D01*
X016425Y022275D01*
Y022659D01*
X016184Y0229D01*
X016425Y023141D01*
Y023659D01*
X016184Y0239D01*
X016425Y024141D01*
Y024659D01*
X016184Y0249D01*
X016425Y025141D01*
Y025659D01*
X016184Y0259D01*
X016425Y026141D01*
Y026659D01*
X016184Y0269D01*
X016425Y027141D01*
Y027659D01*
X016184Y0279D01*
X016425Y028141D01*
Y028659D01*
X016184Y0289D01*
X016425Y029141D01*
Y029659D01*
X016184Y0299D01*
X016425Y030141D01*
Y030659D01*
X016184Y0309D01*
X016425Y031141D01*
Y031659D01*
X016184Y0319D01*
X016425Y032141D01*
Y032659D01*
X016184Y0329D01*
X016425Y033141D01*
Y033659D01*
X016078Y034006D01*
X016275Y034203D01*
Y03435D01*
X0158D01*
Y03445D01*
X016275D01*
Y034597D01*
X016078Y034794D01*
X016425Y035141D01*
Y035659D01*
X016184Y0359D01*
X016425Y036141D01*
Y036659D01*
X016184Y0369D01*
X016425Y037141D01*
Y037659D01*
X016184Y0379D01*
X016425Y038141D01*
Y038525D01*
X016425Y038775D01*
X016425D01*
Y040025D01*
X015175D01*
Y038775D01*
X015175D01*
X015175Y038525D01*
Y038141D01*
X015416Y0379D01*
X015175Y037659D01*
Y037141D01*
X015416Y0369D01*
X015175Y036659D01*
Y036141D01*
X015416Y0359D01*
X015175Y035659D01*
Y035141D01*
X015314Y035002D01*
X015211Y034752D01*
X014446D01*
X008799Y040398D01*
X008866Y040633D01*
X008876Y040648D01*
X01692D01*
X017059Y04044D01*
D02*
G37*
G36*
X024059Y029675D02*
X024198Y029617D01*
Y0252D01*
X024301Y024951D01*
X025148Y024104D01*
Y020776D01*
X024917Y02068D01*
X023149Y022449D01*
X0229Y022552D01*
X021182D01*
X020984Y02275D01*
X021225Y022991D01*
Y023375D01*
X021225Y023625D01*
X021225D01*
Y024875D01*
X021149D01*
X021075Y025053D01*
Y0252D01*
X0206D01*
X020125D01*
Y025053D01*
X020051Y024875D01*
X019975D01*
Y024656D01*
X01995D01*
X019663Y024537D01*
X019663Y024537D01*
X019233Y024107D01*
X019002Y024202D01*
Y025104D01*
X023572Y029675D01*
X024059D01*
D02*
G37*
G36*
X008398Y028354D02*
Y019303D01*
X008148Y019169D01*
X008102Y0192D01*
Y0256D01*
X007999Y025849D01*
X007221Y026627D01*
X006972Y02673D01*
X006354D01*
X006078Y027006D01*
X006275Y027203D01*
Y02735D01*
X0058D01*
Y02745D01*
X006275D01*
Y027597D01*
X006078Y027794D01*
X006425Y028141D01*
Y028659D01*
X006184Y0289D01*
X006425Y029141D01*
Y029659D01*
X006253Y029831D01*
X006389Y030048D01*
X006704D01*
X008398Y028354D01*
D02*
G37*
G36*
X006948Y022534D02*
Y018353D01*
X006699Y018249D01*
X005502Y019446D01*
Y020883D01*
X005603Y020925D01*
X00575D01*
Y0214D01*
X0058D01*
Y02145D01*
X006275D01*
Y021597D01*
X006078Y021794D01*
X006425Y022141D01*
Y022659D01*
X006547Y02289D01*
X006588Y022895D01*
X006948Y022534D01*
D02*
G37*
G36*
X025848Y012947D02*
Y011696D01*
X023204Y009052D01*
X020603D01*
X020595Y00906D01*
X020463Y009266D01*
X021149Y009951D01*
X021155Y009954D01*
X0212Y009935D01*
Y01055D01*
Y011165D01*
X021152Y011145D01*
X020499Y011799D01*
X02025Y011902D01*
X019244D01*
X019206Y012152D01*
X019575Y01252D01*
Y012751D01*
X019806Y012847D01*
X020351Y012301D01*
X0206Y012198D01*
X0246D01*
X024849Y012301D01*
X025598Y013051D01*
X025848Y012947D01*
D02*
G37*
G36*
X015313Y013217D02*
X015175Y01308D01*
Y01252D01*
X01557Y012125D01*
X01613D01*
X01649Y012485D01*
X016625Y012505D01*
X01676Y012485D01*
X01712Y012125D01*
X01768D01*
X018004Y01245D01*
X01815Y012496D01*
X018296Y01245D01*
X018594Y012152D01*
X018556Y011902D01*
X01823D01*
X017981Y011799D01*
X017395Y011213D01*
X017121Y011099D01*
X016985Y01077D01*
Y01065D01*
X01745D01*
Y01055D01*
X016985D01*
Y01043D01*
X017121Y010101D01*
X017364Y01D01*
X017315Y00975D01*
X01695D01*
Y009156D01*
X014656D01*
Y010221D01*
X014906Y010325D01*
X015131Y0101D01*
X015669D01*
X01605Y010481D01*
Y011019D01*
X015669Y0114D01*
X015131D01*
X01475Y011019D01*
Y011001D01*
X014675Y010961D01*
X0145Y010924D01*
X013498Y011926D01*
X013375Y012125D01*
X013428Y012292D01*
X013675Y012371D01*
X01392Y012125D01*
X01448D01*
X014875Y01252D01*
Y01308D01*
X014737Y013217D01*
X014833Y013448D01*
X015217D01*
X015313Y013217D01*
D02*
G37*
%LPC*%
G36*
X001625Y030175D02*
X000375D01*
Y028925D01*
X000451D01*
X000525Y028747D01*
Y0286D01*
X001D01*
X001475D01*
Y028747D01*
X001549Y028925D01*
X001625D01*
Y030175D01*
D02*
G37*
G36*
X02675Y005675D02*
X026603D01*
X026325Y005397D01*
Y00525D01*
X02675D01*
Y005675D01*
D02*
G37*
G36*
X018302Y0026D02*
X018D01*
Y0018D01*
X0188D01*
Y002102D01*
X018302Y0026D01*
D02*
G37*
G36*
X0179D02*
X017598D01*
X0171Y002102D01*
Y0018D01*
X0179D01*
Y0026D01*
D02*
G37*
G36*
X0225Y001995D02*
X022345D01*
X022225Y001875D01*
X02205Y00171D01*
X021875Y001875D01*
X021755Y001995D01*
X0216D01*
Y0015D01*
Y001005D01*
X021755D01*
X021875Y001125D01*
X02205Y00129D01*
X022225Y001125D01*
X022345Y001005D01*
X0225D01*
Y0015D01*
Y001995D01*
D02*
G37*
G36*
X0235D02*
X023345D01*
X023225Y001875D01*
X02305Y00171D01*
X022875Y001875D01*
X022755Y001995D01*
X0226D01*
Y0015D01*
Y001005D01*
X022755D01*
X022875Y001125D01*
X02305Y00129D01*
X023225Y001125D01*
X023345Y001005D01*
X0235D01*
Y0015D01*
Y001995D01*
D02*
G37*
G36*
X0215D02*
X021345D01*
X021225Y001875D01*
X02105Y00171D01*
X020875Y001875D01*
X020755Y001995D01*
X0206D01*
Y0015D01*
Y001005D01*
X020755D01*
X020875Y001125D01*
X02105Y00129D01*
X021225Y001125D01*
X021345Y001005D01*
X0215D01*
Y0015D01*
Y001995D01*
D02*
G37*
G36*
X0205D02*
X020345D01*
X020055Y001705D01*
Y00155D01*
X0205D01*
Y001995D01*
D02*
G37*
G36*
X026997Y005675D02*
X02685D01*
Y0052D01*
X0268D01*
Y00515D01*
X026325D01*
Y005003D01*
X026251Y004825D01*
X026175D01*
Y003575D01*
Y002475D01*
X026175D01*
X026175Y002225D01*
Y001841D01*
X026464Y001552D01*
X026361Y001302D01*
X025246D01*
X025045Y001502D01*
Y001705D01*
X024755Y001995D01*
X0246D01*
Y0015D01*
X0245D01*
Y001995D01*
X024345D01*
X024225Y001875D01*
X02405Y00171D01*
X023875Y001875D01*
X023755Y001995D01*
X0236D01*
Y0015D01*
Y001005D01*
X023755D01*
X023875Y001125D01*
X02405Y00129D01*
X024225Y001125D01*
X024345Y001005D01*
X024548D01*
X024851Y000701D01*
X0251Y000598D01*
X0271D01*
X027349Y000701D01*
X028199Y001551D01*
X028302Y0018D01*
Y005112D01*
X028199Y005361D01*
X028111Y005449D01*
X027862Y005552D01*
X02712D01*
X026997Y005675D01*
D02*
G37*
G36*
X0205Y00145D02*
X020055D01*
Y001295D01*
X020345Y001005D01*
X0205D01*
Y00145D01*
D02*
G37*
G36*
X0188Y0017D02*
X018D01*
Y0009D01*
X018302D01*
X0188Y001398D01*
Y0017D01*
D02*
G37*
G36*
X0179D02*
X0171D01*
Y001398D01*
X017598Y0009D01*
X0179D01*
Y0017D01*
D02*
G37*
G36*
X0031D02*
X0023D01*
Y0009D01*
X002602D01*
X0031Y001398D01*
Y0017D01*
D02*
G37*
G36*
X0022D02*
X0014D01*
Y001398D01*
X001898Y0009D01*
X0022D01*
Y0017D01*
D02*
G37*
G36*
X0033Y011D02*
X0025D01*
Y010698D01*
X002998Y0102D01*
X0033D01*
Y011D01*
D02*
G37*
G36*
X020797Y025725D02*
X02065D01*
Y0253D01*
X021075D01*
Y025447D01*
X020797Y025725D01*
D02*
G37*
G36*
X02055D02*
X020403D01*
X020125Y025447D01*
Y0253D01*
X02055D01*
Y025725D01*
D02*
G37*
G36*
X006275Y02135D02*
X00585D01*
Y020925D01*
X005997D01*
X006275Y021203D01*
Y02135D01*
D02*
G37*
G36*
X02325Y011348D02*
X022806Y011164D01*
X022694Y011164D01*
X02225Y011348D01*
X021806Y011164D01*
X021759Y011049D01*
X021579D01*
X0213Y011165D01*
Y01055D01*
Y009935D01*
X021579Y010051D01*
X021759Y010051D01*
X021806Y009936D01*
X02225Y009752D01*
X022694Y009936D01*
X022806Y009936D01*
X02325Y009752D01*
X023694Y009936D01*
X023878Y01038D01*
Y01072D01*
X023694Y011164D01*
X02325Y011348D01*
D02*
G37*
%LPD*%
D33*
X004838Y0402D02*
X0085D01*
X00475Y01665D02*
X01095Y01045D01*
X00475Y01665D02*
Y040112D01*
X004838Y0402D01*
X0143Y0344D02*
X0158D01*
X0085Y0402D02*
X0143Y0344D01*
X0238Y0323D02*
X025162D01*
X0237D02*
X0238D01*
X0206Y0222D02*
X0229D01*
X0058Y026378D02*
X006972D01*
X0237Y0353D02*
X02465Y03625D01*
X00515Y0193D02*
Y02875D01*
X0058Y0294D01*
X00685Y0304D02*
X00875Y0285D01*
X0058Y0304D02*
X00685D01*
X01502Y0294D02*
X0158D01*
X02795Y0018D02*
Y005112D01*
X027862Y0052D02*
X02795Y005112D01*
X008166Y01095D02*
X00845D01*
X0072Y01535D02*
X00875Y0138D01*
X0079Y01565D02*
X0091Y01445D01*
X0195D01*
X00955Y015D02*
X01975D01*
X00875Y0138D02*
X01935D01*
X01975Y0217D02*
X0233Y01815D01*
X02455Y0252D02*
X0255Y02425D01*
X02525Y025647D02*
X0262Y024697D01*
X02595Y026D02*
X02685Y0251D01*
Y01115D02*
Y0251D01*
X019848Y008548D02*
Y009148D01*
X020923Y010223D01*
X0127Y0054D02*
X01845D01*
X01965Y0066D01*
Y00715D01*
X012838Y0074D02*
X0187D01*
X01805Y00615D02*
X0206Y0087D01*
X01965Y00715D02*
X0203Y0078D01*
X0187Y0074D02*
X019848Y008548D01*
X020923Y010223D02*
X020955D01*
X02125Y010518D01*
Y01055D01*
X020982Y010818D02*
X021014D01*
X02125Y01055D02*
Y010582D01*
X01823Y01155D02*
X02025D01*
X01745Y01077D02*
X01823Y01155D01*
X02025D02*
X020982Y010818D01*
X01745Y0106D02*
Y01077D01*
X021014Y010818D02*
X02125Y010582D01*
X0268Y0052D02*
X027862D01*
X0206Y0087D02*
X02335D01*
X0206Y01255D02*
X0246D01*
X02335Y0087D02*
X0262Y01155D01*
X0235Y0078D02*
X02685Y01115D01*
X0203Y0078D02*
X0235D01*
X0011Y00515D02*
X002Y00425D01*
X01025D01*
X010493Y003193D02*
X0127Y0054D01*
X01025Y00425D02*
X01215Y00615D01*
X01805D01*
X01095Y009288D02*
X012838Y0074D01*
X01095Y009288D02*
Y01045D01*
X01745Y0214D02*
X018012D01*
X0181Y021488D01*
X01865Y02015D02*
Y02525D01*
X0181Y021488D02*
Y0259D01*
X0251Y00095D02*
X0271D01*
X02455Y0015D02*
X0251Y00095D01*
X0271D02*
X02795Y0018D01*
X0225Y00145D02*
X02255Y0015D01*
X014Y02838D02*
X01502Y0294D01*
X00205Y04155D02*
X0278D01*
X0029Y041D02*
X027512D01*
X0189Y0346D02*
Y0382D01*
X0193Y0386D01*
X02065D01*
X0198Y0376D02*
X02015Y03795D01*
X02305D01*
X01745Y0344D02*
X0187D01*
X025162Y0323D02*
X02525Y032212D01*
X0255Y0333D02*
X02595Y03285D01*
X0237Y0333D02*
X0255D01*
X02735Y0357D02*
X0281Y03645D01*
X0267Y0357D02*
X02735D01*
X0267Y0367D02*
X02725D01*
X0276Y03705D01*
X0278Y04155D02*
X0281Y04125D01*
X02405Y0386D02*
X02465Y038D01*
X02065Y0386D02*
X02405D01*
X0281Y03645D02*
Y04125D01*
X0276Y03705D02*
Y040912D01*
X027512Y041D02*
X0276Y040912D01*
X02595Y026D02*
Y03285D01*
X02455Y0252D02*
Y031212D01*
X02525Y025647D02*
Y032212D01*
X024462Y0313D02*
X02455Y031212D01*
X02305Y03795D02*
X0237Y0373D01*
X02465Y03625D02*
Y038D01*
X0007Y00385D02*
X001357Y003193D01*
X010493D01*
X00875Y01895D02*
Y0285D01*
X014Y0194D02*
Y02838D01*
X0079Y01565D02*
Y01765D01*
X0087Y01585D02*
X00955Y015D01*
X00995Y01565D02*
X019662D01*
X00965Y01595D02*
X00995Y01565D01*
X0087Y01585D02*
Y0179D01*
X00965Y01595D02*
Y01805D01*
X00775Y01885D02*
X0087Y0179D01*
X00875Y01895D02*
X00965Y01805D01*
X0007Y025D02*
X0041Y0284D01*
X0014Y032D02*
X002Y0314D01*
X002Y03295D02*
X00255Y0324D01*
X002Y0314D02*
X0041D01*
X00255Y0324D02*
X0041D01*
X0187Y0344D02*
X0189Y0346D01*
X0181Y0259D02*
X0198Y0276D01*
Y0376D01*
X01975Y0217D02*
Y023162D01*
X019838Y02325D01*
X0206D01*
X01865Y02525D02*
X0237Y0303D01*
X0238Y0313D02*
X024462D01*
X0229Y0222D02*
X02495Y02015D01*
X0014Y032D02*
Y0409D01*
X00205Y04155D01*
X002Y03295D02*
Y0401D01*
X0029Y041D01*
X00775Y01885D02*
Y0256D01*
X00658Y0234D02*
X0073Y02268D01*
X0058Y0234D02*
X00658D01*
X006972Y026378D02*
X00775Y0256D01*
X014Y0194D02*
X0158Y0176D01*
X01865Y02015D02*
X01975Y01905D01*
X01935Y0138D02*
X0206Y01255D01*
X019662Y01565D02*
X01975Y015738D01*
Y01905D01*
X0262Y01155D02*
Y024697D01*
X0255Y01345D02*
Y02425D01*
X0007Y00385D02*
Y025D01*
X0011Y00515D02*
Y0194D01*
X00515Y0193D02*
X0072Y01725D01*
X0073Y01825D02*
Y02268D01*
X0011Y0194D02*
X0041Y0224D01*
X01975Y015D02*
X0208Y01395D01*
X0246Y01255D02*
X0255Y01345D01*
X0208Y01315D02*
X024239D01*
X02495Y013861D01*
X0195Y01445D02*
X0208Y01315D01*
X0208Y01395D02*
X023212D01*
X0233Y014038D01*
Y01815D01*
X02495Y013861D02*
Y02015D01*
X0073Y01825D02*
X0079Y01765D01*
X0072Y01535D02*
Y01725D01*
D34*
X0267Y0377D02*
Y03865D01*
X0127Y01215D02*
X01425Y0106D01*
X0127Y01215D02*
Y0128D01*
X01925Y0204D02*
X0212Y01845D01*
X02765Y00805D02*
Y032214D01*
X01435Y00875D02*
X01795D01*
X024Y0067D02*
X02455D01*
X0263D01*
X02765Y00805D01*
X01925Y0204D02*
Y02355D01*
X027147Y032097D02*
X027533D01*
X02765Y032214D01*
X02695Y0319D02*
X027147Y032097D01*
X02765Y032214D02*
Y033562D01*
X027562Y03365D02*
X02765Y033562D01*
X0261Y03365D02*
X027562D01*
X0256Y03415D02*
X0261Y03365D01*
X017596Y04055D02*
X0248D01*
X01745Y0394D02*
Y040404D01*
X017596Y04055D01*
X0256Y03415D02*
Y0373D01*
X026Y0377D01*
X0267D01*
X0248Y04055D02*
X0267Y03865D01*
X01995Y02425D02*
X0206D01*
X01925Y02355D02*
X01995Y02425D01*
X0212Y014845D02*
Y01845D01*
X01425Y00885D02*
X01435Y00875D01*
X01425Y00885D02*
Y0106D01*
D35*
X008166Y01095D02*
X008175Y010941D01*
X005093Y0104D02*
X007807D01*
X0048Y010693D02*
X005093Y0104D01*
X007807D02*
X008175Y010768D01*
Y010941D01*
X0048Y010693D02*
Y01565D01*
X00335Y0171D02*
X0048Y01565D01*
D36*
X0158Y0214D02*
D03*
Y0394D02*
D03*
D37*
Y0224D02*
D03*
Y0234D02*
D03*
Y0244D02*
D03*
Y0254D02*
D03*
Y0264D02*
D03*
Y0274D02*
D03*
Y0284D02*
D03*
Y0294D02*
D03*
Y0304D02*
D03*
Y0314D02*
D03*
Y0324D02*
D03*
Y0334D02*
D03*
Y0344D02*
D03*
Y0354D02*
D03*
Y0364D02*
D03*
Y0374D02*
D03*
Y0384D02*
D03*
X0058Y0394D02*
D03*
Y0384D02*
D03*
Y0374D02*
D03*
Y0364D02*
D03*
Y0354D02*
D03*
Y0344D02*
D03*
Y0334D02*
D03*
Y0324D02*
D03*
Y0314D02*
D03*
Y0304D02*
D03*
Y0294D02*
D03*
Y0284D02*
D03*
Y0274D02*
D03*
Y0264D02*
D03*
Y0254D02*
D03*
Y0244D02*
D03*
Y0234D02*
D03*
Y0224D02*
D03*
Y0214D02*
D03*
X02695Y0299D02*
D03*
Y0309D02*
D03*
Y0329D02*
D03*
X0041Y0224D02*
D03*
X0238Y0363D02*
D03*
Y0353D02*
D03*
Y0343D02*
D03*
Y0333D02*
D03*
Y0323D02*
D03*
Y0313D02*
D03*
Y0303D02*
D03*
X02065Y0302D02*
D03*
Y0312D02*
D03*
Y0322D02*
D03*
Y0342D02*
D03*
Y0352D02*
D03*
Y0362D02*
D03*
X0268Y0021D02*
D03*
Y0052D02*
D03*
X0206Y02225D02*
D03*
Y02325D02*
D03*
Y02525D02*
D03*
X0269Y0367D02*
D03*
Y0357D02*
D03*
Y0347D02*
D03*
X001Y02855D02*
D03*
Y02755D02*
D03*
Y02655D02*
D03*
D38*
X00225Y00175D02*
D03*
X01795D02*
D03*
X00335Y0151D02*
D03*
Y01105D02*
D03*
D39*
X00225Y00875D02*
D03*
X01795D02*
D03*
D40*
X0124Y01075D02*
D03*
D41*
X0154D02*
D03*
D42*
X01085Y01195D02*
D03*
X00605Y01675D02*
D03*
X01085D02*
D03*
D43*
X00845Y01095D02*
D03*
X00605Y01195D02*
D03*
D44*
X00335Y0171D02*
D03*
Y01305D02*
D03*
D45*
X0127Y0128D02*
D03*
X01415Y0176D02*
D03*
D46*
X01265D02*
D03*
X01585Y0128D02*
D03*
X0158Y0176D02*
D03*
X01735D02*
D03*
X0174Y0128D02*
D03*
X0142D02*
D03*
X01885Y0176D02*
D03*
X0189Y0128D02*
D03*
D47*
X02695Y0319D02*
D03*
X0238Y0373D02*
D03*
X02065Y0332D02*
D03*
Y0372D02*
D03*
X0268Y0031D02*
D03*
Y0042D02*
D03*
X0206Y02425D02*
D03*
X0269Y0377D02*
D03*
X001Y02955D02*
D03*
D48*
X0041Y0214D02*
D03*
Y0234D02*
D03*
Y0244D02*
D03*
Y0254D02*
D03*
Y0264D02*
D03*
Y0274D02*
D03*
Y0284D02*
D03*
Y0294D02*
D03*
Y0304D02*
D03*
Y0314D02*
D03*
Y0324D02*
D03*
Y0334D02*
D03*
Y0344D02*
D03*
Y0354D02*
D03*
Y0364D02*
D03*
Y0374D02*
D03*
Y0384D02*
D03*
Y0394D02*
D03*
X02055Y0015D02*
D03*
X02155D02*
D03*
X02255D02*
D03*
X02355D02*
D03*
X02455D02*
D03*
X01745Y0384D02*
D03*
Y0374D02*
D03*
Y0364D02*
D03*
Y0354D02*
D03*
Y0344D02*
D03*
Y0334D02*
D03*
Y0324D02*
D03*
Y0314D02*
D03*
Y0304D02*
D03*
Y0294D02*
D03*
Y0284D02*
D03*
Y0274D02*
D03*
Y0264D02*
D03*
Y0254D02*
D03*
Y0244D02*
D03*
Y0234D02*
D03*
Y0224D02*
D03*
X02065Y0386D02*
D03*
X0242Y01485D02*
D03*
D49*
X02455Y0067D02*
D03*
X02355D02*
D03*
X02255D02*
D03*
X02155D02*
D03*
X02055D02*
D03*
X0212Y014845D02*
D03*
D50*
X01745Y0394D02*
D03*
Y0214D02*
D03*
X02065Y0396D02*
D03*
D51*
X02125Y01055D02*
D03*
X02225D02*
D03*
X02325D02*
D03*
X01745Y0106D02*
D03*
X01845D02*
D03*
X01945D02*
D03*
M02*
