%TF.GenerationSoftware,Altium Limited,Altium Designer,21.3.2 (30)*%
G04 Layer_Physical_Order=2*
G04 Layer_Color=16711680*
%FSLAX25Y25*%
%MOIN*%
%TF.SameCoordinates,C3D6B9D7-463A-470E-9858-FE52AE1E130A*%
%TF.FilePolarity,Positive*%
%TF.FileFunction,Copper,L2,Bot,Signal*%
%TF.Part,Single*%
G01*
G75*
%TA.AperFunction,Conductor*%
%ADD10C,0.01500*%
%ADD11C,0.02500*%
%ADD12C,0.05000*%
%TA.AperFunction,ComponentPad*%
%ADD13R,0.07500X0.07500*%
%ADD14C,0.07500*%
%ADD15C,0.15000*%
%ADD16R,0.15000X0.15000*%
%ADD17R,0.08000X0.08000*%
%ADD18C,0.08000*%
%ADD19C,0.12000*%
%ADD20R,0.12000X0.12000*%
%ADD21R,0.15000X0.15000*%
%ADD22R,0.08500X0.08500*%
%ADD23C,0.08500*%
%ADD24R,0.07500X0.07500*%
%ADD25C,0.07906*%
%ADD26R,0.07906X0.07906*%
%ADD27R,0.07906X0.07906*%
%ADD28O,0.06600X0.10000*%
D10*
X174500Y354000D02*
X190000D01*
X158000D02*
X174500D01*
X157000Y334039D02*
X158000D01*
X158020Y334020D01*
X174480D01*
X174500Y324000D02*
X192121D01*
X158000D02*
X174500D01*
Y314000D02*
X188121D01*
X158000D02*
X174500D01*
X158000Y304020D02*
X174480D01*
X158000Y294039D02*
X158020Y294020D01*
X157000Y294039D02*
X158000D01*
X158020Y294020D02*
X174480D01*
X158000Y284020D02*
X174480D01*
X174500Y284000D02*
X175136Y283364D01*
X179636D01*
X192000Y271000D01*
X142500Y252000D02*
X144500Y254000D01*
X174500D01*
X158000Y224039D02*
X158020Y224020D01*
X157000Y224039D02*
X158000D01*
X158020Y224020D02*
X174480D01*
X41000Y234000D02*
X58000D01*
X56980Y244020D02*
X57000Y244039D01*
X41020Y244020D02*
X56980D01*
Y254020D02*
X57000Y254039D01*
X41020Y254020D02*
X56980D01*
X41221Y263779D02*
X58000D01*
X267000Y347000D02*
Y347500D01*
X237500Y353500D02*
X250000D01*
X237000Y353000D02*
X237500Y353500D01*
X205000Y252000D02*
X212500D01*
X58000Y274000D02*
X67500D01*
X158000Y344000D02*
X174500D01*
X58000Y214000D02*
X63000D01*
X41000D02*
X58000D01*
X58000Y274000D02*
X58000Y274000D01*
X41000Y274000D02*
X58000D01*
X41000Y284000D02*
X58000D01*
X56980Y294020D02*
X57000Y294039D01*
X41020Y294020D02*
X56980D01*
X41000Y304000D02*
X58000D01*
X41000Y314000D02*
X58000D01*
X41000Y324000D02*
X58000D01*
X41000Y334000D02*
X58000D01*
X41000Y344000D02*
X58000D01*
X20396D02*
X41000D01*
X26879Y354000D02*
X41000D01*
X58000D01*
X41000Y364000D02*
X58000D01*
X35500D02*
X41000D01*
Y394000D02*
X58000D01*
X79000Y202879D02*
Y262500D01*
X67500Y274000D02*
X79000Y262500D01*
X63000Y206500D02*
Y214000D01*
X58500Y202000D02*
X78121D01*
X79000Y202879D01*
X58500Y202000D02*
X63000Y206500D01*
X225500Y15000D02*
X235500D01*
X245500D01*
X255500Y21000D02*
X268000D01*
X262250Y47750D02*
Y84750D01*
X254000Y22500D02*
X255500Y21000D01*
X268000Y31000D02*
X277500D01*
X281500Y35000D01*
X262250Y47750D02*
X268000Y42000D01*
X254000Y22500D02*
Y83121D01*
X22500Y17500D02*
X179500D01*
X9000Y31000D02*
X22500Y17500D01*
X9000Y31000D02*
Y100000D01*
X19500Y110500D01*
X33500D01*
X16500Y113500D02*
X19500Y110500D01*
X174000Y126500D02*
Y128000D01*
X163000Y34000D02*
X179500Y17500D01*
X163000Y34000D02*
Y92800D01*
X174500Y104300D01*
X161500Y115000D02*
X177200D01*
X205500Y15000D02*
X215500D01*
X225500D01*
X179500Y17500D02*
X203000D01*
X205500Y15000D01*
X205250Y92750D02*
X208000Y90000D01*
X184500Y103500D02*
X204000Y84000D01*
X222000Y95879D02*
X222879Y95000D01*
X222000Y95879D02*
Y105000D01*
X174500Y104300D02*
Y106000D01*
X222000Y105000D02*
X222500Y105500D01*
X177200Y115000D02*
X184500Y107700D01*
Y103500D02*
Y107700D01*
X186500Y118000D02*
X193524Y110976D01*
X205250Y92750D02*
Y119750D01*
X193524Y106976D02*
X194500Y106000D01*
X193524Y106976D02*
Y110976D01*
X232500Y105500D02*
Y112500D01*
X251000Y95000D02*
X262000Y106000D01*
X108500Y119500D02*
X109000Y119000D01*
X153161Y107500D02*
X154000D01*
X149161Y111500D02*
X153161Y107500D01*
X154000D02*
X161500Y115000D01*
X140000Y111500D02*
X149161D01*
X132500Y119000D02*
X140000Y111500D01*
X109000Y119000D02*
X132500D01*
X253121Y84000D02*
X254000Y83121D01*
X204000Y84000D02*
X253121D01*
X257000Y90000D02*
X262250Y84750D01*
X208000Y90000D02*
X257000D01*
X222879Y95000D02*
X251000D01*
X250000Y289500D02*
Y326000D01*
X257500Y308121D02*
X258379Y309000D01*
X269500D01*
X174480Y304020D02*
X174500Y304000D01*
X174480Y294020D02*
X174500Y294000D01*
X206500Y312000D02*
X207203Y311297D01*
X212500Y322000D02*
X220000Y314500D01*
X206500Y322000D02*
X212500D01*
X216000Y332000D02*
X225000Y323000D01*
X206500Y332000D02*
X216000D01*
X269500Y329000D02*
Y346500D01*
X269000Y347000D02*
X269500Y346500D01*
X256000Y347500D02*
X267000D01*
X250000Y353500D02*
X256000Y347500D01*
X250000Y326000D02*
X253000Y329000D01*
X269500D01*
X202000Y302000D02*
X206500D01*
X214965Y291000D02*
X220000Y296036D01*
X201500Y295500D02*
X211500D01*
X214500Y298500D01*
X207203Y311297D02*
X211703D01*
X214500Y298500D02*
Y308500D01*
X220000Y296036D02*
Y314500D01*
X225000Y294000D02*
Y323000D01*
X211703Y311297D02*
X214500Y308500D01*
X230000Y292000D02*
Y356000D01*
X269500Y259000D02*
Y299000D01*
X235000Y232500D02*
X257500Y255000D01*
X206000Y232500D02*
X235000D01*
X212500Y252000D02*
X250000Y289500D01*
X257500Y255000D02*
Y308121D01*
X220000Y282000D02*
X230000Y292000D01*
X225879Y166500D02*
X247000D01*
X237000Y226500D02*
X269500Y259000D01*
X158000Y234000D02*
X174500D01*
X210500Y226500D02*
X237000D01*
X206500Y222500D02*
X210500Y226500D01*
X217586Y286586D02*
X225000Y294000D01*
X197500Y291000D02*
X214965D01*
X195000Y282000D02*
X220000D01*
X195450Y286586D02*
X217586D01*
X219500Y125500D02*
X232500Y112500D01*
X209000Y125500D02*
X219500D01*
X196000Y138500D02*
X209000Y125500D01*
X207000Y138500D02*
X224121D01*
X242000Y148500D02*
X262000Y128500D01*
X224121Y138500D02*
X225000Y139379D01*
X197250Y148250D02*
X207000Y138500D01*
X247000Y166500D02*
X281500Y132000D01*
X225000Y139379D02*
Y165621D01*
X225879Y166500D01*
X41000Y244000D02*
X41020Y244020D01*
X40000Y245000D02*
X41000Y244000D01*
X16500Y113500D02*
Y152879D01*
X18379Y151000D02*
X33500D01*
X16500Y152879D02*
X18379Y151000D01*
X16500Y152879D02*
Y177000D01*
X41500Y202000D01*
X158500Y128000D02*
X169000Y138500D01*
X142000Y128000D02*
X162250Y148250D01*
X173500Y176000D02*
Y191000D01*
X41000Y254000D02*
X41020Y254020D01*
X41000Y264000D02*
X41221Y263779D01*
X41000Y274000D02*
X41000Y274000D01*
X126500Y236000D02*
X142500Y252000D01*
X206000Y222500D02*
X206500D01*
X158000Y244000D02*
X174500D01*
X158000Y264000D02*
X174500D01*
X158520Y274020D02*
X174480D01*
X182500Y118000D02*
X186500D01*
X174000Y126500D02*
X182500Y118000D01*
X197000Y128000D02*
X205250Y119750D01*
X192000Y181394D02*
Y271000D01*
X189000Y128000D02*
X197000D01*
X169000Y138500D02*
X196000D01*
X162250Y148250D02*
X197250D01*
X174480Y224020D02*
X174500Y224000D01*
X188500Y176000D02*
Y177894D01*
X192000Y181394D01*
X174000Y191500D02*
X186500Y204000D01*
Y270000D01*
X182500Y274000D02*
X186500Y270000D01*
X174500Y274000D02*
X182500D01*
X174480Y274020D02*
X174500Y274000D01*
X185000Y292000D02*
X195000Y282000D01*
X189000Y293036D02*
X195450Y286586D01*
X41500Y202000D02*
X58500D01*
X41000Y224000D02*
X58000D01*
X224500Y418500D02*
X227000Y416000D01*
X21500Y245000D02*
X40000D01*
X10000Y256500D02*
X21500Y245000D01*
X126500Y176000D02*
Y236000D01*
X158000Y214000D02*
X174500D01*
X21861Y418500D02*
X224500D01*
X13000Y409639D02*
X21861Y418500D01*
X281500Y35000D02*
Y132000D01*
X262000Y106000D02*
Y128500D01*
X41000Y384000D02*
X41020Y384020D01*
X19518Y405518D02*
X27500Y413500D01*
X26000Y401000D02*
X34500Y409500D01*
X32500Y367000D02*
Y398500D01*
Y367000D02*
X35500Y364000D01*
X32500Y398500D02*
X39000Y405000D01*
X26000Y354879D02*
X26879Y354000D01*
X26000Y354879D02*
Y401000D01*
X19518Y344879D02*
X20396Y344000D01*
X19000Y334500D02*
X40500D01*
X41000Y334000D01*
X13000Y340500D02*
X19000Y334500D01*
X174480Y334020D02*
X174500Y334000D01*
X142500Y252000D02*
Y400121D01*
X158000Y364000D02*
X174500D01*
X158000Y374000D02*
X174500D01*
X27500Y413500D02*
X221000D01*
X34500Y409500D02*
X214000D01*
X175000Y333500D02*
X195621D01*
X174500Y304000D02*
X184121D01*
X185000Y303121D01*
X188121Y314000D02*
X189000Y313121D01*
X192121Y324000D02*
X193000Y323121D01*
X195621Y333500D02*
X196500Y332621D01*
Y300500D02*
Y332621D01*
X209000Y405000D02*
X213500Y400500D01*
X201142Y401000D02*
X206142Y396000D01*
X206500D01*
X222500Y352879D02*
Y412000D01*
X227000Y351343D02*
Y416000D01*
X218000Y362879D02*
Y405500D01*
X213500Y372879D02*
Y400500D01*
X214000Y409500D02*
X218000Y405500D01*
X221000Y413500D02*
X222500Y412000D01*
X21500Y274000D02*
X41000D01*
Y294000D02*
X41020Y294020D01*
X10000Y256500D02*
Y265500D01*
Y275500D02*
X17000Y268500D01*
Y258500D02*
Y268500D01*
Y258500D02*
X22000Y253500D01*
X40500D01*
X41000Y254000D01*
X10000Y285500D02*
X21500Y274000D01*
X217121Y362000D02*
X218000Y362879D01*
X217657Y342000D02*
X227000Y351343D01*
X206500Y352000D02*
X221621D01*
X222500Y352879D01*
X230000Y356000D02*
X237000Y363000D01*
X174500Y334000D02*
X175000Y333500D01*
X190000Y354000D02*
X200500Y343500D01*
X212621Y372000D02*
X213500Y372879D01*
X206500Y372000D02*
X212621D01*
X206500Y362000D02*
X217121D01*
X206500Y342000D02*
X217657D01*
X193000Y295500D02*
X197500Y291000D01*
X185000Y292000D02*
Y303121D01*
X189000Y293036D02*
Y313121D01*
X193000Y295500D02*
Y323121D01*
X196500Y300500D02*
X201500Y295500D01*
X200500Y303500D02*
Y343500D01*
Y303500D02*
X202000Y302000D01*
X41000Y374000D02*
X41020Y374020D01*
X56980D01*
X57000Y374039D01*
X13000Y340500D02*
Y409639D01*
X19518Y344879D02*
Y405518D01*
X158000Y384000D02*
X174500D01*
X41020Y384020D02*
X56980D01*
X57000Y384039D01*
X142500Y400121D02*
X143379Y401000D01*
X201142D01*
X39000Y405000D02*
X209000D01*
D11*
X179500Y79500D02*
Y87500D01*
X192000Y67000D02*
X205500D01*
X215500D01*
X225500D01*
X179500Y79500D02*
X192000Y67000D01*
X225500D02*
X235500D01*
X245500D01*
X199950Y160500D02*
X212000Y148450D01*
X127000Y128000D02*
X159500Y160500D01*
X199950D01*
X252000Y423000D02*
X269000Y406000D01*
X8297Y297203D02*
X10000Y295500D01*
X8000Y413000D02*
X18000Y423000D01*
X8000Y298667D02*
Y413000D01*
X18000Y423000D02*
X252000D01*
X8000Y298667D02*
X8297Y298370D01*
Y297203D02*
Y298370D01*
X269000Y377000D02*
Y406000D01*
X158000Y394000D02*
X174500D01*
D12*
X22500Y87500D02*
X57500D01*
X116000D01*
X57500D02*
X60500Y90500D01*
Y119500D01*
X44500D02*
X60500D01*
X116000Y87500D02*
X124000Y95500D01*
Y107500D01*
X33500Y130500D02*
X44500Y119500D01*
X60500D02*
Y134500D01*
X93500Y167500D01*
X108500D01*
X118000Y158000D02*
X135000D01*
X141500Y164500D01*
X108500Y167500D02*
X118000Y158000D01*
X141500Y164500D02*
Y176000D01*
D13*
X158000Y214000D02*
D03*
Y394000D02*
D03*
D14*
Y224000D02*
D03*
Y234000D02*
D03*
Y244000D02*
D03*
Y254000D02*
D03*
Y264000D02*
D03*
Y274000D02*
D03*
Y284000D02*
D03*
Y294000D02*
D03*
Y304000D02*
D03*
Y314000D02*
D03*
Y324000D02*
D03*
Y334000D02*
D03*
Y344000D02*
D03*
Y354000D02*
D03*
Y364000D02*
D03*
Y374000D02*
D03*
Y384000D02*
D03*
X58000Y394000D02*
D03*
Y384000D02*
D03*
Y374000D02*
D03*
Y364000D02*
D03*
Y354000D02*
D03*
Y344000D02*
D03*
Y334000D02*
D03*
Y324000D02*
D03*
Y314000D02*
D03*
Y304000D02*
D03*
Y294000D02*
D03*
Y284000D02*
D03*
Y274000D02*
D03*
Y264000D02*
D03*
Y254000D02*
D03*
Y244000D02*
D03*
Y234000D02*
D03*
Y224000D02*
D03*
Y214000D02*
D03*
X269500Y299000D02*
D03*
Y309000D02*
D03*
Y329000D02*
D03*
X41000Y224000D02*
D03*
X238000Y363000D02*
D03*
Y353000D02*
D03*
Y343000D02*
D03*
Y333000D02*
D03*
Y323000D02*
D03*
Y313000D02*
D03*
Y303000D02*
D03*
X206500Y302000D02*
D03*
Y312000D02*
D03*
Y322000D02*
D03*
Y342000D02*
D03*
Y352000D02*
D03*
Y362000D02*
D03*
X268000Y21000D02*
D03*
Y52000D02*
D03*
X206000Y222500D02*
D03*
Y232500D02*
D03*
Y252500D02*
D03*
X269000Y367000D02*
D03*
Y357000D02*
D03*
Y347000D02*
D03*
X10000Y285500D02*
D03*
Y275500D02*
D03*
Y265500D02*
D03*
D15*
X22500Y17500D02*
D03*
X179500D02*
D03*
X33500Y151000D02*
D03*
Y110500D02*
D03*
D16*
X22500Y87500D02*
D03*
X179500D02*
D03*
D17*
X124000Y107500D02*
D03*
D18*
X154000D02*
D03*
D19*
X108500Y119500D02*
D03*
X60500Y167500D02*
D03*
X108500D02*
D03*
D20*
X84500Y109500D02*
D03*
X60500Y119500D02*
D03*
D21*
X33500Y171000D02*
D03*
Y130500D02*
D03*
D22*
X127000Y128000D02*
D03*
X141500Y176000D02*
D03*
D23*
X126500D02*
D03*
X158500Y128000D02*
D03*
X158000Y176000D02*
D03*
X173500D02*
D03*
X174000Y128000D02*
D03*
X142000D02*
D03*
X188500Y176000D02*
D03*
X189000Y128000D02*
D03*
D24*
X269500Y319000D02*
D03*
X238000Y373000D02*
D03*
X206500Y332000D02*
D03*
Y372000D02*
D03*
X268000Y31000D02*
D03*
Y42000D02*
D03*
X206000Y242500D02*
D03*
X269000Y377000D02*
D03*
X10000Y295500D02*
D03*
D25*
X41000Y214000D02*
D03*
Y234000D02*
D03*
Y244000D02*
D03*
Y254000D02*
D03*
Y264000D02*
D03*
Y274000D02*
D03*
Y284000D02*
D03*
Y294000D02*
D03*
Y304000D02*
D03*
Y314000D02*
D03*
Y324000D02*
D03*
Y334000D02*
D03*
Y344000D02*
D03*
Y354000D02*
D03*
Y364000D02*
D03*
Y374000D02*
D03*
Y384000D02*
D03*
Y394000D02*
D03*
X205500Y15000D02*
D03*
X215500D02*
D03*
X225500D02*
D03*
X235500D02*
D03*
X245500D02*
D03*
X174500Y384000D02*
D03*
Y374000D02*
D03*
Y364000D02*
D03*
Y354000D02*
D03*
Y344000D02*
D03*
Y334000D02*
D03*
Y324000D02*
D03*
Y314000D02*
D03*
Y304000D02*
D03*
Y294000D02*
D03*
Y284000D02*
D03*
Y274000D02*
D03*
Y264000D02*
D03*
Y254000D02*
D03*
Y244000D02*
D03*
Y234000D02*
D03*
Y224000D02*
D03*
X206500Y386000D02*
D03*
X242000Y148500D02*
D03*
D26*
X245500Y67000D02*
D03*
X235500D02*
D03*
X225500D02*
D03*
X215500D02*
D03*
X205500D02*
D03*
X212000Y148450D02*
D03*
D27*
X174500Y394000D02*
D03*
Y214000D02*
D03*
X206500Y396000D02*
D03*
D28*
X212500Y105500D02*
D03*
X222500D02*
D03*
X232500D02*
D03*
X174500Y106000D02*
D03*
X184500D02*
D03*
X194500D02*
D03*
%TF.MD5,0fecc4dfeb57edf838bd8f66d0357e78*%
M02*
