G04*
G04 #@! TF.GenerationSoftware,Altium Limited,Altium Designer,21.3.2 (30)*
G04*
G04 Layer_Color=65535*
%FSTAX24Y24*%
%MOIN*%
G70*
G04*
G04 #@! TF.SameCoordinates,F68F6C76-AA82-476B-A51A-8D37A50AFAF4*
G04*
G04*
G04 #@! TF.FilePolarity,Positive*
G04*
G01*
G75*
%ADD10C,0.0079*%
%ADD11C,0.0070*%
%ADD12C,0.0040*%
%ADD13C,0.0080*%
%ADD14C,0.0050*%
%ADD15C,0.0100*%
%ADD16R,0.0200X0.1260*%
G36*
X0025Y01205D02*
X00275Y0118D01*
Y01195D01*
X003D01*
Y01215D01*
X00275D01*
Y0123D01*
X0025Y01205D01*
D02*
G37*
G36*
Y0161D02*
X00275Y01585D01*
Y016D01*
X003D01*
Y0162D01*
X00275D01*
Y01635D01*
X0025Y0161D01*
D02*
G37*
D10*
X016576Y021353D02*
X016497D01*
X016576D01*
X02795Y0294D02*
Y0334D01*
X02745D02*
X02795D01*
X02745Y0294D02*
X02795D01*
Y029733D02*
X029283D01*
X02945Y0299D01*
X029283Y030067D02*
X02945Y0299D01*
X02795Y030067D02*
X029283D01*
X02795Y030733D02*
X029283D01*
X02945Y0309D01*
X029283Y031067D02*
X02945Y0309D01*
X02795Y031067D02*
X029283D01*
X02795Y031733D02*
X029283D01*
X02945Y0319D01*
X029283Y032067D02*
X02945Y0319D01*
X02795Y032067D02*
X029283D01*
X02795Y032733D02*
X029283D01*
X02945Y0329D01*
X029283Y033067D02*
X02945Y0329D01*
X02795Y033067D02*
X029283D01*
X02745Y0294D02*
Y0334D01*
X0036Y0209D02*
Y03915D01*
Y0399D01*
X001767Y021233D02*
X0031D01*
X0016Y0214D02*
X001767Y021233D01*
X0016Y0214D02*
X001767Y021567D01*
X0031D01*
X001767Y022233D02*
X0031D01*
X0016Y0224D02*
X001767Y022233D01*
X0016Y0224D02*
X001767Y022567D01*
X0031D01*
X001767Y023233D02*
X0031D01*
X0016Y0234D02*
X001767Y023233D01*
X0016Y0234D02*
X001767Y023567D01*
X0031D01*
X001767Y024233D02*
X0031D01*
X0016Y0244D02*
X001767Y024233D01*
X0016Y0244D02*
X001767Y024567D01*
X0031D01*
X001767Y025233D02*
X0031D01*
X0016Y0254D02*
X001767Y025233D01*
X0016Y0254D02*
X001767Y025567D01*
X0031D01*
X001767Y026233D02*
X0031D01*
X0016Y0264D02*
X001767Y026233D01*
X0016Y0264D02*
X001767Y026567D01*
X0031D01*
X001767Y027233D02*
X0031D01*
X0016Y0274D02*
X001767Y027233D01*
X0016Y0274D02*
X001767Y027567D01*
X0031D01*
X001767Y028233D02*
X0031D01*
X0016Y0284D02*
X001767Y028233D01*
X0016Y0284D02*
X001767Y028567D01*
X0031D01*
X001767Y029233D02*
X0031D01*
X0016Y0294D02*
X001767Y029233D01*
X0016Y0294D02*
X001767Y029567D01*
X0031D01*
X001767Y030233D02*
X0031D01*
X0016Y0304D02*
X001767Y030233D01*
X0016Y0304D02*
X001767Y030567D01*
X0031D01*
X001767Y031233D02*
X0031D01*
X0016Y0314D02*
X001767Y031233D01*
X0016Y0314D02*
X001767Y031567D01*
X0031D01*
X001767Y032233D02*
X0031D01*
X0016Y0324D02*
X001767Y032233D01*
X0016Y0324D02*
X001767Y032567D01*
X0031D01*
X001767Y033233D02*
X0031D01*
X0016Y0334D02*
X001767Y033233D01*
X0016Y0334D02*
X001767Y033567D01*
X0031D01*
X001767Y034233D02*
X0031D01*
X0016Y0344D02*
X001767Y034233D01*
X0016Y0344D02*
X001767Y034567D01*
X0031D01*
X001767Y035233D02*
X0031D01*
X0016Y0354D02*
X001767Y035233D01*
X0016Y0354D02*
X001767Y035567D01*
X0031D01*
X001767Y036233D02*
X0031D01*
X0016Y0364D02*
X001767Y036233D01*
X0016Y0364D02*
X001767Y036567D01*
X0031D01*
X001767Y037233D02*
X0031D01*
X0016Y0374D02*
X001767Y037233D01*
X0016Y0374D02*
X001767Y037567D01*
X0031D01*
X001767Y038233D02*
X0031D01*
X0016Y0384D02*
X001767Y038233D01*
X0016Y0384D02*
X001767Y038567D01*
X0031D01*
X001767Y039233D02*
X0031D01*
X0016Y0394D02*
X001767Y039233D01*
X0016Y0394D02*
X001767Y039567D01*
X0031D01*
Y0209D02*
X0036D01*
X0031D02*
Y0399D01*
X0036D01*
X0243Y0298D02*
Y0378D01*
Y029967D02*
X024467Y0298D01*
X0248Y037467D02*
X026133D01*
X0263Y0373D01*
X026133Y037133D02*
X0263Y0373D01*
X0248Y037133D02*
X026133D01*
X0248Y036467D02*
X026133D01*
X0263Y0363D01*
X026133Y036133D02*
X0263Y0363D01*
X0248Y036133D02*
X026133D01*
X0248Y035467D02*
X026133D01*
X0263Y0353D01*
X026133Y035133D02*
X0263Y0353D01*
X0248Y035133D02*
X026133D01*
X0248Y034467D02*
X026133D01*
X0263Y0343D01*
X026133Y034133D02*
X0263Y0343D01*
X0248Y034133D02*
X026133D01*
X0248Y033467D02*
X026133D01*
X0263Y0333D01*
X026133Y033133D02*
X0263Y0333D01*
X0248Y033133D02*
X026133D01*
X0248Y032467D02*
X026133D01*
X0263Y0323D01*
X026133Y032133D02*
X0263Y0323D01*
X0248Y032133D02*
X026133D01*
X0248Y031467D02*
X026133D01*
X0263Y0313D01*
X026133Y031133D02*
X0263Y0313D01*
X0248Y031133D02*
X026133D01*
X0248Y030467D02*
X026133D01*
X0263Y0303D01*
X026133Y030133D02*
X0263Y0303D01*
X0248Y030133D02*
X026133D01*
X0243Y0378D02*
X0248D01*
Y0298D02*
Y0378D01*
X0243Y0298D02*
X0248D01*
X02115Y0297D02*
X02165D01*
Y0377D01*
X02115D02*
X02165D01*
Y030033D02*
X022983D01*
X02315Y0302D01*
X022983Y030367D02*
X02315Y0302D01*
X02165Y030367D02*
X022983D01*
X02165Y031033D02*
X022983D01*
X02315Y0312D01*
X022983Y031367D02*
X02315Y0312D01*
X02165Y031367D02*
X022983D01*
X02165Y032033D02*
X022983D01*
X02315Y0322D01*
X022983Y032367D02*
X02315Y0322D01*
X02165Y032367D02*
X022983D01*
X02165Y033033D02*
X022983D01*
X02315Y0332D01*
X022983Y033367D02*
X02315Y0332D01*
X02165Y033367D02*
X022983D01*
X02165Y034033D02*
X022983D01*
X02315Y0342D01*
X022983Y034367D02*
X02315Y0342D01*
X02165Y034367D02*
X022983D01*
X02165Y035033D02*
X022983D01*
X02315Y0352D01*
X022983Y035367D02*
X02315Y0352D01*
X02165Y035367D02*
X022983D01*
X02165Y036033D02*
X022983D01*
X02315Y0362D01*
X022983Y036367D02*
X02315Y0362D01*
X02165Y036367D02*
X022983D01*
X02165Y037033D02*
X022983D01*
X02315Y0372D01*
X022983Y037367D02*
X02315Y0372D01*
X02165Y037367D02*
X022983D01*
X02115Y029867D02*
X021317Y0297D01*
X02115D02*
Y0377D01*
X02005Y002D02*
X02505D01*
X020383Y0025D02*
Y003833D01*
X02055Y004D01*
X020717Y003833D01*
Y0025D02*
Y003833D01*
X021383Y0025D02*
Y003833D01*
X02155Y004D01*
X021717Y003833D01*
Y0025D02*
Y003833D01*
X022383Y0025D02*
Y003833D01*
X02255Y004D01*
X022717Y003833D01*
Y0025D02*
Y003833D01*
X023383Y0025D02*
Y003833D01*
X02355Y004D01*
X023717Y003833D01*
Y0025D02*
Y003833D01*
X024383Y0025D02*
Y003833D01*
X02455Y004D01*
X024717Y003833D01*
Y0025D02*
Y003833D01*
X02505Y002D02*
Y0025D01*
X02005D02*
X02505D01*
X02005Y002D02*
Y0025D01*
Y0062D02*
X02505D01*
X024717Y004367D02*
Y0057D01*
X02455Y0042D02*
X024717Y004367D01*
X024383D02*
X02455Y0042D01*
X024383Y004367D02*
Y0057D01*
X023717Y004367D02*
Y0057D01*
X02355Y0042D02*
X023717Y004367D01*
X023383D02*
X02355Y0042D01*
X023383Y004367D02*
Y0057D01*
X022717Y004367D02*
Y0057D01*
X02255Y0042D02*
X022717Y004367D01*
X022383D02*
X02255Y0042D01*
X022383Y004367D02*
Y0057D01*
X021717Y004367D02*
Y0057D01*
X02155Y0042D02*
X021717Y004367D01*
X021383D02*
X02155Y0042D01*
X021383Y004367D02*
Y0057D01*
X020717Y004367D02*
Y0057D01*
X02055Y0042D02*
X020717Y004367D01*
X020383D02*
X02055Y0042D01*
X020383Y004367D02*
Y0057D01*
X02005D02*
Y0062D01*
Y0057D02*
X02505D01*
Y0062D01*
X01795Y02165D02*
Y0399D01*
Y0209D02*
Y02165D01*
X01845Y039567D02*
X019783D01*
X01995Y0394D01*
X019783Y039233D02*
X01995Y0394D01*
X01845Y039233D02*
X019783D01*
X01845Y038567D02*
X019783D01*
X01995Y0384D01*
X019783Y038233D02*
X01995Y0384D01*
X01845Y038233D02*
X019783D01*
X01845Y037567D02*
X019783D01*
X01995Y0374D01*
X019783Y037233D02*
X01995Y0374D01*
X01845Y037233D02*
X019783D01*
X01845Y036567D02*
X019783D01*
X01995Y0364D01*
X019783Y036233D02*
X01995Y0364D01*
X01845Y036233D02*
X019783D01*
X01845Y035567D02*
X019783D01*
X01995Y0354D01*
X019783Y035233D02*
X01995Y0354D01*
X01845Y035233D02*
X019783D01*
X01845Y034567D02*
X019783D01*
X01995Y0344D01*
X019783Y034233D02*
X01995Y0344D01*
X01845Y034233D02*
X019783D01*
X01845Y033567D02*
X019783D01*
X01995Y0334D01*
X019783Y033233D02*
X01995Y0334D01*
X01845Y033233D02*
X019783D01*
X01845Y032567D02*
X019783D01*
X01995Y0324D01*
X019783Y032233D02*
X01995Y0324D01*
X01845Y032233D02*
X019783D01*
X01845Y031567D02*
X019783D01*
X019783D02*
X01995Y0314D01*
X019783Y031233D02*
X01995Y0314D01*
X01845Y031233D02*
X019783D01*
X01845Y030567D02*
X019783D01*
X01995Y0304D01*
X019783Y030233D02*
X01995Y0304D01*
X01845Y030233D02*
X019783D01*
X01845Y029567D02*
X019783D01*
X01995Y0294D01*
X019783Y029233D02*
X01995Y0294D01*
X01845Y029233D02*
X019783D01*
X01845Y028567D02*
X019783D01*
X01995Y0284D01*
X019783Y028233D02*
X01995Y0284D01*
X01845Y028233D02*
X019783D01*
X01845Y027567D02*
X019783D01*
X01995Y0274D01*
X019783Y027233D02*
X01995Y0274D01*
X01845Y027233D02*
X019783D01*
X01845Y026567D02*
X019783D01*
X01995Y0264D01*
X019783Y026233D02*
X01995Y0264D01*
X01845Y026233D02*
X019783D01*
X01845Y025567D02*
X019783D01*
X01995Y0254D01*
X019783Y025233D02*
X01995Y0254D01*
X01845Y025233D02*
X019783D01*
X01845Y024567D02*
X019783D01*
X01995Y0244D01*
X019783Y024233D02*
X01995Y0244D01*
X01845Y024233D02*
X019783D01*
X01845Y023567D02*
X019783D01*
X01995Y0234D01*
X019783Y023233D02*
X01995Y0234D01*
X01845Y023233D02*
X019783D01*
X01845Y022567D02*
X019783D01*
X01995Y0224D01*
X019783Y022233D02*
X01995Y0224D01*
X01845Y022233D02*
X019783D01*
X01845Y021567D02*
X019783D01*
X01995Y0214D01*
X019783Y021233D02*
X01995Y0214D01*
X01845Y021233D02*
X019783D01*
X01795Y0399D02*
X01845D01*
Y0209D02*
Y0399D01*
X01795Y0209D02*
X01845D01*
X0216Y02175D02*
Y02575D01*
X0211D02*
X0216D01*
X0211Y02175D02*
X0216D01*
Y022083D02*
X022933D01*
X0231Y02225D01*
X022933Y022417D02*
X0231Y02225D01*
X0216Y022417D02*
X022933D01*
X0216Y023083D02*
X022933D01*
X0231Y02325D01*
X022933Y023417D02*
X0231Y02325D01*
X0216Y023417D02*
X022933D01*
X0216Y024083D02*
X022933D01*
X0231Y02425D01*
X022933Y024417D02*
X0231Y02425D01*
X0216Y024417D02*
X022933D01*
X0216Y025083D02*
X022933D01*
X0231Y02525D01*
X022933Y025417D02*
X0231Y02525D01*
X0216Y025417D02*
X022933D01*
X0211Y02175D02*
Y02575D01*
X02165Y0381D02*
Y0401D01*
X02115D02*
X02165D01*
X02115Y0381D02*
X02165D01*
X02115D02*
Y0401D01*
X02165Y038433D02*
X022983D01*
X02315Y0386D01*
X022983Y038767D02*
X02315Y0386D01*
X02165Y038767D02*
X022983D01*
X02165Y039433D02*
X022983D01*
X02315Y0396D01*
X022983Y039767D02*
X02315Y0396D01*
X02165Y039767D02*
X022983D01*
X0274Y0342D02*
Y0382D01*
X0279Y037867D02*
X029233D01*
X0294Y0377D01*
X029233Y037533D02*
X0294Y0377D01*
X0279Y037533D02*
X029233D01*
X0279Y036867D02*
X029233D01*
X0294Y0367D01*
X029233Y036533D02*
X0294Y0367D01*
X0279Y036533D02*
X029233D01*
X0279Y035867D02*
X029233D01*
X0294Y0357D01*
X029233Y035533D02*
X0294Y0357D01*
X0279Y035533D02*
X029233D01*
X0279Y034867D02*
X029233D01*
X0294Y0347D01*
X029233Y034533D02*
X0294Y0347D01*
X0279Y034533D02*
X029233D01*
X0274Y0342D02*
X0279D01*
X0274Y0382D02*
X0279D01*
Y0342D02*
Y0382D01*
X0Y02605D02*
Y03005D01*
Y02605D02*
X0005D01*
X0Y03005D02*
X0005D01*
X-001333Y029717D02*
X0D01*
X-0015Y02955D02*
X-001333Y029717D01*
X-0015Y02955D02*
X-001333Y029383D01*
X0D01*
X-001333Y028717D02*
X0D01*
X-0015Y02855D02*
X-001333Y028717D01*
X-0015Y02855D02*
X-001333Y028383D01*
X0D01*
X-001333Y027717D02*
X0D01*
X-0015Y02755D02*
X-001333Y027717D01*
X-0015Y02755D02*
X-001333Y027383D01*
X0D01*
X-001333Y026717D02*
X0D01*
X-0015Y02655D02*
X-001333Y026717D01*
X-0015Y02655D02*
X-001333Y026383D01*
X0D01*
X0005Y02605D02*
Y03005D01*
D11*
X00904Y01224D02*
X008966Y012306D01*
X008885Y012363D01*
X008798Y01241D01*
X008706Y012446D01*
X00861Y012471D01*
X008512Y012483D01*
X008413Y012484D01*
X008314Y012473D01*
X008218Y01245D01*
X008125Y012416D01*
X008037Y012371D01*
X007955Y012315D01*
X00788Y01225D01*
X008628Y014192D02*
X0086Y014288D01*
X008524Y014354D01*
X008425Y014368D01*
X008333Y014327D01*
X008279Y014242D01*
Y014142D01*
X008333Y014057D01*
X008425Y014016D01*
X008524Y01403D01*
X0086Y014096D01*
X008628Y014192D01*
X007968Y016302D02*
X00794Y016398D01*
X007864Y016464D01*
X007765Y016478D01*
X007673Y016437D01*
X007619Y016352D01*
Y016252D01*
X007673Y016167D01*
X007765Y016126D01*
X007864Y01614D01*
X00794Y016206D01*
X007968Y016302D01*
X009478Y016292D02*
X00945Y016388D01*
X009374Y016454D01*
X009275Y016468D01*
X009183Y016427D01*
X009129Y016342D01*
Y016242D01*
X009183Y016157D01*
X009275Y016116D01*
X009374Y01613D01*
X00945Y016196D01*
X009478Y016292D01*
X002896Y017498D02*
X002836Y017417D01*
X002791Y017327D01*
X002761Y017232D01*
X002747Y017132D01*
X00275Y017032D01*
X00277Y016933D01*
X002805Y01684D01*
X002856Y016753D01*
X00292Y016676D01*
X002996Y016611D01*
X003082Y016559D01*
X003176Y016522D01*
X003274Y016501D01*
X003374Y016497D01*
X003474Y016509D01*
X00357Y016538D01*
X00366Y016582D01*
X003741Y01664D01*
X003812Y016712D01*
X00387Y016793D01*
X003914Y016884D01*
X003942Y01698D01*
X003953Y01708D01*
X003948Y01718D01*
X003927Y017278D01*
X003889Y017371D01*
X003837Y017457D01*
X003771Y017532D01*
X003694Y017596D01*
X003607Y017646D01*
X003513Y017681D01*
X003414Y0177D01*
X003314Y017703D01*
X003215Y017688D01*
X003119Y017658D01*
X00303Y017612D01*
X00295Y017552D01*
X001894Y0151D02*
X00183Y015164D01*
X001766Y0151D01*
X00183Y015036D01*
X001894Y0151D01*
X001884Y01712D02*
X00182Y017184D01*
X001756Y01712D01*
X00182Y017056D01*
X001884Y01712D01*
X002889Y01549D02*
X002831Y015409D01*
X002787Y015319D01*
X002759Y015223D01*
X002747Y015124D01*
X002751Y015024D01*
X002772Y014926D01*
X002809Y014833D01*
X00286Y014747D01*
X002925Y014671D01*
X003002Y014607D01*
X003088Y014556D01*
X003182Y01452D01*
X00328Y0145D01*
X00338Y014497D01*
X003479Y01451D01*
X003575Y01454D01*
X003664Y014584D01*
X003745Y014643D01*
X003815Y014715D01*
X003872Y014797D01*
X003915Y014888D01*
X003942Y014984D01*
X003954Y015083D01*
X003948Y015183D01*
X003926Y015281D01*
X003888Y015374D01*
X003836Y015459D01*
X00377Y015534D01*
X003692Y015597D01*
X003605Y015647D01*
X003511Y015682D01*
X003413Y0157D01*
X003313Y015703D01*
X003214Y015688D01*
X003119Y015658D01*
X00303Y015612D01*
X00295Y015552D01*
X002896Y013448D02*
X002836Y013367D01*
X002791Y013277D01*
X002761Y013182D01*
X002747Y013082D01*
X00275Y012982D01*
X00277Y012883D01*
X002805Y01279D01*
X002856Y012703D01*
X00292Y012626D01*
X002996Y012561D01*
X003082Y012509D01*
X003176Y012472D01*
X003274Y012451D01*
X003374Y012447D01*
X003474Y012459D01*
X00357Y012488D01*
X00366Y012532D01*
X003741Y01259D01*
X003812Y012662D01*
X00387Y012743D01*
X003914Y012834D01*
X003942Y01293D01*
X003953Y01303D01*
X003948Y01313D01*
X003927Y013228D01*
X003889Y013321D01*
X003837Y013407D01*
X003771Y013482D01*
X003694Y013546D01*
X003607Y013596D01*
X003513Y013631D01*
X003414Y01365D01*
X003314Y013653D01*
X003215Y013638D01*
X003119Y013608D01*
X00303Y013562D01*
X00295Y013502D01*
X001894Y01105D02*
X00183Y011114D01*
X001766Y01105D01*
X00183Y010986D01*
X001894Y01105D01*
X001884Y01307D02*
X00182Y013134D01*
X001756Y01307D01*
X00182Y013006D01*
X001884Y01307D01*
X002889Y01144D02*
X002831Y011359D01*
X002787Y011269D01*
X002759Y011173D01*
X002747Y011074D01*
X002751Y010974D01*
X002772Y010876D01*
X002809Y010783D01*
X00286Y010697D01*
X002925Y010621D01*
X003002Y010557D01*
X003088Y010506D01*
X003182Y01047D01*
X00328Y01045D01*
X00338Y010447D01*
X003479Y01046D01*
X003575Y01049D01*
X003664Y010534D01*
X003745Y010593D01*
X003815Y010665D01*
X003872Y010747D01*
X003915Y010838D01*
X003942Y010934D01*
X003954Y011033D01*
X003948Y011133D01*
X003926Y011231D01*
X003888Y011324D01*
X003836Y011409D01*
X00377Y011484D01*
X003692Y011547D01*
X003605Y011597D01*
X003511Y011632D01*
X003413Y01165D01*
X003313Y011653D01*
X003214Y011638D01*
X003119Y011608D01*
X00303Y011562D01*
X00295Y011502D01*
X023449Y01095D02*
X023406Y011039D01*
X023356Y011124D01*
X0233Y011206D01*
X023238Y011282D01*
X023169Y011354D01*
X023096Y011421D01*
X023018Y011482D01*
X022936Y011536D01*
X022849Y011584D01*
X022759Y011626D01*
X022667Y01166D01*
X022571Y011688D01*
X022474Y011708D01*
X022376Y011721D01*
X022278Y011726D01*
X022179Y011723D01*
X02208Y011713D01*
X021983Y011696D01*
X021887Y011671D01*
X021793Y011639D01*
X021702Y0116D01*
X021614Y011554D01*
X02153Y011502D01*
X021451Y011443D01*
X021376Y011379D01*
X021306Y011309D01*
X021241Y011234D01*
X021183Y011154D01*
X02113Y01107D01*
X021085Y010982D01*
X019649Y011D02*
X019606Y011089D01*
X019556Y011174D01*
X0195Y011256D01*
X019438Y011332D01*
X019369Y011404D01*
X019296Y011471D01*
X019218Y011532D01*
X019136Y011586D01*
X019049Y011634D01*
X018959Y011676D01*
X018867Y01171D01*
X018771Y011738D01*
X018674Y011758D01*
X018576Y011771D01*
X018477Y011776D01*
X018379Y011773D01*
X01828Y011763D01*
X018183Y011746D01*
X018087Y011721D01*
X017993Y011689D01*
X017902Y01165D01*
X017814Y011604D01*
X01773Y011552D01*
X017651Y011493D01*
X017576Y011429D01*
X017506Y011359D01*
X017441Y011284D01*
X017383Y011204D01*
X01733Y01112D01*
X017285Y011032D01*
X01315Y01059D02*
Y01075D01*
Y01096D01*
X01356Y01025D02*
Y01122D01*
X01285Y01075D02*
X01315D01*
X01465D02*
X01495D01*
X01315Y01014D02*
Y01075D01*
Y01014D02*
X01465D01*
Y0114D01*
X01315D02*
X01465D01*
X01315Y01075D02*
Y0114D01*
X00673Y01224D02*
X00787D01*
X00905Y01223D02*
X01018D01*
X00806Y01621D02*
X00845Y01582D01*
Y01439D02*
Y01582D01*
X0093Y01647D02*
X00957Y01674D01*
X01023D01*
X00747D02*
X00773Y01648D01*
X00671Y01674D02*
X00747D01*
X00535Y01025D02*
Y01805D01*
X01155Y01025D02*
Y01805D01*
X00535Y01025D02*
X01155D01*
X00535Y01805D02*
X01155D01*
X00846Y01166D02*
Y01399D01*
X00135Y0181D02*
X0015D01*
Y018D02*
Y0181D01*
X00135Y0141D02*
Y0181D01*
X00295D02*
X00414D01*
X00435Y0141D02*
Y0181D01*
X002925Y017525D02*
X00377Y01668D01*
X00263Y01612D02*
X00414D01*
X00155Y01404D02*
X0018D01*
X00135Y0141D02*
X00285D01*
X00153Y018D02*
X00184D01*
Y0181D01*
X00435D01*
X00285Y0141D02*
X00435D01*
X00235D02*
Y0181D01*
X00292Y01553D02*
X00377Y01468D01*
X0119Y01355D02*
X013388D01*
X0119D02*
Y01683D01*
X013388D01*
Y01355D02*
Y01683D01*
X01266D02*
Y01721D01*
X00135Y01405D02*
X0015D01*
Y01395D02*
Y01405D01*
X00135Y01005D02*
Y01405D01*
X00295D02*
X00414D01*
X00435Y01005D02*
Y01405D01*
X002925Y013475D02*
X00377Y01263D01*
X00263Y01207D02*
X00414D01*
X00155Y00999D02*
X0018D01*
X00135Y01005D02*
X00285D01*
X00153Y01395D02*
X00184D01*
Y01405D01*
X00435D01*
X00285Y01005D02*
X00435D01*
X00235D02*
Y01405D01*
X00292Y01148D02*
X00377Y01063D01*
X01505Y01355D02*
X016538D01*
X01505D02*
Y01683D01*
X016538D01*
Y01355D02*
Y01683D01*
X01581D02*
Y01721D01*
X01736Y01683D02*
Y01721D01*
X018088Y01355D02*
Y01683D01*
X0166D02*
X018088D01*
X0166Y01355D02*
Y01683D01*
Y01355D02*
X018088D01*
X013462Y01685D02*
X01495D01*
Y01357D02*
Y01685D01*
X013462Y01357D02*
X01495D01*
X013462D02*
Y01685D01*
X01419Y01319D02*
Y01357D01*
X021097Y010148D02*
X02127Y0099D01*
X0233D02*
X02343Y01016D01*
X02127Y0099D02*
X0233D01*
X017297Y010198D02*
X01747Y00995D01*
X0195D02*
X01963Y01021D01*
X01747Y00995D02*
X0195D01*
X018162Y01685D02*
X01965D01*
Y01357D02*
Y01685D01*
X018162Y01357D02*
X01965D01*
X018162D02*
Y01685D01*
X01889Y01319D02*
Y01357D01*
D12*
X027391Y0026D02*
X027382Y0027D01*
X027357Y002797D01*
X027316Y002888D01*
X027259Y002971D01*
X02719Y003043D01*
X02711Y003103D01*
X02702Y003148D01*
X026924Y003177D01*
X026825Y00319D01*
X026725Y003186D01*
X026627Y003165D01*
X026534Y003127D01*
X026449Y003075D01*
X026374Y003009D01*
X026311Y002931D01*
X026262Y002843D01*
X026228Y002749D01*
X026212Y00265D01*
Y00255D01*
X026228Y002451D01*
X026262Y002357D01*
X026311Y002269D01*
X026374Y002191D01*
X026449Y002125D01*
X026534Y002073D01*
X026627Y002035D01*
X026725Y002014D01*
X026825Y00201D01*
X026924Y002023D01*
X02702Y002052D01*
X02711Y002097D01*
X02719Y002157D01*
X027259Y002229D01*
X027316Y002312D01*
X027357Y002403D01*
X027382Y0025D01*
X027391Y0026D01*
Y0047D02*
X027382Y0048D01*
X027357Y004897D01*
X027316Y004988D01*
X027259Y005071D01*
X02719Y005143D01*
X02711Y005203D01*
X02702Y005248D01*
X026924Y005277D01*
X026825Y00529D01*
X026725Y005286D01*
X026627Y005265D01*
X026534Y005227D01*
X026449Y005175D01*
X026374Y005109D01*
X026311Y005031D01*
X026262Y004943D01*
X026228Y004849D01*
X026212Y00475D01*
Y00465D01*
X026228Y004551D01*
X026262Y004457D01*
X026311Y004369D01*
X026374Y004291D01*
X026449Y004225D01*
X026534Y004173D01*
X026627Y004135D01*
X026725Y004114D01*
X026825Y00411D01*
X026924Y004123D01*
X02702Y004152D01*
X02711Y004197D01*
X02719Y004257D01*
X027259Y004329D01*
X027316Y004412D01*
X027357Y004503D01*
X027382Y0046D01*
X027391Y0047D01*
X0268Y0024D02*
X0273D01*
X0268D02*
X0273Y0028D01*
X0263Y0024D02*
X0268D01*
X0263Y0028D02*
X0268Y0024D01*
X0263Y0028D02*
X0273D01*
X0263Y0049D02*
X0268D01*
X0263Y0045D02*
X0268Y0049D01*
X0273D01*
X0268D02*
X0273Y0045D01*
X0263D02*
X0273D01*
D13*
X024241Y01629D02*
X024171Y016361D01*
X024098Y016428D01*
X024021Y016493D01*
X023942Y016553D01*
X02386Y016609D01*
X023775Y016662D01*
X023688Y016711D01*
X023599Y016755D01*
X023508Y016795D01*
X023415Y016831D01*
X02332Y016862D01*
X023224Y016889D01*
X023127Y016912D01*
X023029Y016929D01*
X02293Y016942D01*
X022831Y016951D01*
X022731Y016955D01*
X022632Y016954D01*
X022532Y016948D01*
X022433Y016938D01*
X022335Y016923D01*
X022237Y016903D01*
X02214Y016879D01*
X022045Y01685D01*
X021951Y016817D01*
X021859Y016779D01*
X021768Y016737D01*
X02168Y016691D01*
X021594Y016641D01*
X02151Y016586D01*
X021429Y016528D01*
X021351Y016466D01*
X021276Y016401D01*
X021204Y016332D01*
X021136Y01626D01*
X02107Y016184D01*
X021009Y016106D01*
X020951Y016025D01*
X020897Y015941D01*
X020848Y015854D01*
X020802Y015766D01*
X02076Y015675D01*
X020723Y015583D01*
X020691Y015488D01*
X020662Y015393D01*
X020639Y015296D01*
X020619Y015198D01*
X020605Y0151D01*
X020595Y015D01*
X02059Y014901D01*
X02059Y014801D01*
X020594Y014702D01*
X020603Y014602D01*
X020616Y014504D01*
X020635Y014406D01*
X020658Y014309D01*
X020685Y014213D01*
X020717Y014119D01*
X020753Y014026D01*
X020794Y013935D01*
X020839Y013846D01*
X020888Y013759D01*
X020941Y013675D01*
X020998Y013593D01*
X021059Y013514D01*
X021123Y013438D01*
X021191Y013365D01*
X021262Y013295D01*
X021337Y013229D01*
X021414Y013167D01*
X021495Y013108D01*
X021578Y013053D01*
X021663Y013002D01*
X021751Y012955D01*
X021841Y012912D01*
X021933Y012874D01*
X022027Y012839D01*
X022122Y01281D01*
X022219Y012785D01*
X022316Y012764D01*
X022415Y012748D01*
X022514Y012737D01*
X022613Y012731D01*
X022713Y012729D01*
X022812Y012732D01*
X022912Y012739D01*
X023011Y012751D01*
X023109Y012768D01*
X023206Y01279D01*
X023302Y012816D01*
X023397Y012846D01*
X023491Y012881D01*
X023582Y012921D01*
X023672Y012964D01*
X023759Y013012D01*
X023844Y013064D01*
X023927Y01312D01*
X024007Y013179D01*
X024084Y013243D01*
X024157Y01331D01*
X024228Y01338D01*
X024295Y013453D01*
X024359Y01353D01*
X024419Y01361D01*
X024475Y013692D01*
X024527Y013777D01*
X024576Y013864D01*
X02462Y013954D01*
X024659Y014045D01*
X024695Y014138D01*
X024726Y014233D01*
X024752Y014329D01*
X024774Y014426D01*
X024791Y014524D01*
X024804Y014623D01*
X024812Y014723D01*
X024815Y014822D01*
X024814Y014922D01*
X024808Y015021D01*
X024797Y01512D01*
X024781Y015219D01*
X024761Y015316D01*
X024737Y015413D01*
X024708Y015508D01*
X024674Y015602D01*
X024636Y015694D01*
X024593Y015784D01*
X024547Y015873D01*
X024496Y015958D01*
X024442Y016042D01*
X024383Y016122D01*
X024321Y0162D01*
X024255Y016275D01*
D14*
X016292Y020908D02*
Y039884D01*
X005308Y020908D02*
Y039884D01*
Y020908D02*
X007257D01*
X014343D02*
X016292D01*
X014343Y018467D02*
Y020908D01*
X007257Y018467D02*
X014343D01*
X007257D02*
Y020908D01*
X012402Y039884D02*
X016292D01*
X012402D02*
Y040239D01*
X009202D02*
X012402D01*
X009202Y039884D02*
Y040239D01*
X005308Y039884D02*
X009202D01*
D15*
X00905Y00515D02*
Y00605D01*
X00845Y00515D02*
Y00605D01*
X00785Y00515D02*
Y00615D01*
X00725Y00515D02*
Y00605D01*
X00665Y00515D02*
Y00615D01*
X00615Y00635D02*
Y00875D01*
Y00635D02*
X00635Y00615D01*
X01005D01*
Y00865D01*
X00995Y00875D02*
X01005Y00865D01*
X00625Y00875D02*
X00995D01*
X01105Y00175D02*
Y00515D01*
Y00175D02*
X01495D01*
Y00515D01*
X01115D02*
X01495D01*
X00145Y00095D02*
X01865D01*
Y00955D01*
X00145D02*
X01865D01*
X00145Y00095D02*
Y00955D01*
X0127Y01305D02*
Y01355D01*
X01585Y01305D02*
Y01355D01*
X0174Y01305D02*
Y01355D01*
X01415Y01685D02*
Y01735D01*
X01885Y01685D02*
Y01735D01*
X01655Y00285D02*
X01635D01*
X01625Y00275D01*
Y00235D01*
X01635Y00225D01*
X01655D01*
X01665Y00235D01*
Y00275D01*
X01655Y00285D01*
X01685D02*
Y00235D01*
X01695Y00225D01*
X01715D01*
X01725Y00235D01*
Y00285D01*
X01745D02*
X017849D01*
X01765D01*
Y00225D01*
X018049Y00255D02*
X018449D01*
X01665Y00815D02*
X01645D01*
X01635Y00805D01*
Y00765D01*
X01645Y00755D01*
X01665D01*
X01675Y00765D01*
Y00805D01*
X01665Y00815D01*
X01695D02*
Y00765D01*
X01705Y00755D01*
X01725D01*
X01735Y00765D01*
Y00815D01*
X01755D02*
X017949D01*
X01775D01*
Y00755D01*
X018149Y00785D02*
X018549D01*
X018349Y00805D02*
Y00765D01*
X00195Y00315D02*
X00215D01*
X00205D01*
Y00255D01*
X00195D01*
X00215D01*
X00245D02*
Y00315D01*
X00285Y00255D01*
Y00315D01*
X00305Y00285D02*
X00345D01*
X00195Y00785D02*
X00215D01*
X00205D01*
Y00725D01*
X00195D01*
X00215D01*
X00245D02*
Y00785D01*
X00285Y00725D01*
Y00785D01*
X00305Y00755D02*
X00345D01*
X00325Y00775D02*
Y00735D01*
X021755Y014865D02*
X022155D01*
X021955Y015065D02*
Y014665D01*
X0015Y0105D02*
Y0099D01*
X0019D01*
X0021Y0104D02*
X0022Y0105D01*
X0024D01*
X0025Y0104D01*
Y0103D01*
X0023Y0101D01*
Y01D02*
Y0099D01*
X01963Y01711D02*
Y01651D01*
X02003D01*
X01711Y04084D02*
Y04024D01*
Y04054D01*
X01751D01*
Y04084D01*
Y04024D01*
X01771Y04084D02*
Y04044D01*
X01791Y04024D01*
X01811Y04044D01*
Y04084D01*
X0205Y00715D02*
Y00775D01*
X0208D01*
X0209Y00765D01*
Y00745D01*
X0208Y00735D01*
X0205D01*
X0211Y00775D02*
Y00735D01*
X0213Y00715D01*
X0215Y00735D01*
Y00775D01*
X0221Y00765D02*
X022Y00775D01*
X0218D01*
X0217Y00765D01*
Y00725D01*
X0218Y00715D01*
X022D01*
X0221Y00725D01*
X0227Y00765D02*
X0226Y00775D01*
X0224D01*
X0223Y00765D01*
Y00725D01*
X0224Y00715D01*
X0226D01*
X0227Y00725D01*
X0206Y00045D02*
Y00105D01*
X0209D01*
X021Y00095D01*
Y00075D01*
X0209Y00065D01*
X0206D01*
X0216Y00095D02*
X0215Y00105D01*
X0213D01*
X0212Y00095D01*
Y00055D01*
X0213Y00045D01*
X0215D01*
X0216Y00055D01*
Y00075D01*
X0214D01*
X0218Y00045D02*
Y00105D01*
X0222Y00045D01*
Y00105D01*
X0224D02*
Y00045D01*
X0227D01*
X0228Y00055D01*
Y00095D01*
X0227Y00105D01*
X0224D01*
X0244Y02875D02*
Y02935D01*
X0246Y02915D01*
X0248Y02935D01*
Y02875D01*
X0254Y02925D02*
X0253Y02935D01*
X0251D01*
X025Y02925D01*
Y02885D01*
X0251Y02875D01*
X0253D01*
X0254Y02885D01*
X01605Y01835D02*
X01545D01*
Y01865D01*
X01555Y01875D01*
X01575D01*
X01585Y01865D01*
Y01835D01*
Y01855D02*
X01605Y01875D01*
X01545Y01895D02*
X01605D01*
Y01935D01*
X01425Y018151D02*
X01365D01*
Y018451D01*
X01375Y018551D01*
X01395D01*
X01405Y018451D01*
Y018151D01*
Y018351D02*
X01425Y018551D01*
X01365Y01875D02*
X01425D01*
Y01915D01*
X01375Y01975D02*
X01365Y01965D01*
Y01945D01*
X01375Y01935D01*
X01415D01*
X01425Y01945D01*
Y01965D01*
X01415Y01975D01*
X01395D01*
Y01955D01*
X01425Y01995D02*
X01365D01*
Y02025D01*
X01375Y02035D01*
X01395D01*
X01405Y02025D01*
Y01995D01*
Y02015D02*
X01425Y02035D01*
X01365Y02095D02*
Y02055D01*
X01425D01*
Y02095D01*
X01395Y02055D02*
Y02075D01*
X01365Y02155D02*
Y02115D01*
X01425D01*
Y02155D01*
X01395Y02115D02*
Y02135D01*
X01425Y021749D02*
X01365D01*
X01425Y022149D01*
X01365D01*
X0191Y0184D02*
X0185D01*
Y0187D01*
X0186Y0188D01*
X0188D01*
X0189Y0187D01*
Y0184D01*
Y0186D02*
X0191Y0188D01*
X0185Y019D02*
X0191D01*
Y0194D01*
Y0196D02*
X0185D01*
Y0199D01*
X0186Y02D01*
X0188D01*
X0189Y0199D01*
Y0196D01*
Y0198D02*
X0191Y02D01*
X0129Y0182D02*
X0123D01*
Y0185D01*
X0124Y0186D01*
X0126D01*
X0127Y0185D01*
Y0182D01*
Y0184D02*
X0129Y0186D01*
X0123Y0188D02*
X0129D01*
Y0191D01*
X0128Y0192D01*
X0124D01*
X0123Y0191D01*
Y0188D01*
Y0197D02*
Y0195D01*
X0124Y0194D01*
X0128D01*
X0129Y0195D01*
Y0197D01*
X0128Y0198D01*
X0124D01*
X0123Y0197D01*
Y0203D02*
Y0201D01*
X0124Y02D01*
X0128D01*
X0129Y0201D01*
Y0203D01*
X0128Y0204D01*
X0124D01*
X0123Y0203D01*
X0129Y0206D02*
X0123D01*
Y0209D01*
X0124Y021D01*
X0126D01*
X0127Y0209D01*
Y0206D01*
Y0208D02*
X0129Y021D01*
X01765Y0138D02*
X01705D01*
Y0141D01*
X01715Y0142D01*
X01735D01*
X01745Y0141D01*
Y0138D01*
Y014D02*
X01765Y0142D01*
X01715Y0148D02*
X01705Y0147D01*
Y0145D01*
X01715Y0144D01*
X01755D01*
X01765Y0145D01*
Y0147D01*
X01755Y0148D01*
X01705Y015D02*
Y0154D01*
Y0152D01*
X01765D01*
Y0156D02*
X01705D01*
Y0159D01*
X01715Y016D01*
X01735D01*
X01745Y0159D01*
Y0156D01*
Y0158D02*
X01765Y016D01*
X01715Y0166D02*
X01705Y0165D01*
Y0163D01*
X01715Y0162D01*
X01755D01*
X01765Y0163D01*
Y0165D01*
X01755Y0166D01*
X00105Y016D02*
X00045D01*
Y0163D01*
X00055Y0164D01*
X00075D01*
X00085Y0163D01*
Y016D01*
X00055Y017D02*
X00045Y0169D01*
Y0167D01*
X00055Y0166D01*
X00095D01*
X00105Y0167D01*
Y0169D01*
X00095Y017D01*
X0012Y0108D02*
X0006D01*
Y0111D01*
X0007Y0112D01*
X0009D01*
X001Y0111D01*
Y0108D01*
X0012Y0114D02*
X0008D01*
X0006Y0116D01*
X0008Y0118D01*
X0012D01*
X0009D01*
Y0114D01*
X0006Y012D02*
X0012D01*
Y0123D01*
X0011Y0124D01*
X0007D01*
X0006Y0123D01*
Y012D01*
Y0126D02*
Y013D01*
Y0128D01*
X0012D01*
X0261Y00647D02*
Y00587D01*
X0265D01*
X0271Y00647D02*
X0267D01*
Y00587D01*
X0271D01*
X0267Y00617D02*
X0269D01*
X0273Y00647D02*
Y00587D01*
X0276D01*
X027699Y00597D01*
Y00637D01*
X0276Y00647D01*
X0273D01*
X027899Y00587D02*
Y00647D01*
X028199D01*
X028299Y00637D01*
Y00617D01*
X028199Y00607D01*
X027899D01*
X028099D02*
X028299Y00587D01*
X02645Y0017D02*
Y0011D01*
X02685D01*
X02745Y0017D02*
X02705D01*
Y0011D01*
X02745D01*
X02705Y0014D02*
X02725D01*
X02765Y0017D02*
Y0011D01*
X02795D01*
X02805Y0012D01*
Y0016D01*
X02795Y0017D01*
X02765D01*
X02865Y0016D02*
X02855Y0017D01*
X02835D01*
X02825Y0016D01*
Y0012D01*
X02835Y0011D01*
X02855D01*
X02865Y0012D01*
Y0014D01*
X02845D01*
X0272Y0291D02*
Y0285D01*
X0276D01*
X0282Y029D02*
X0281Y0291D01*
X0279D01*
X0278Y029D01*
Y0286D01*
X0279Y0285D01*
X0281D01*
X0282Y0286D01*
X0284Y0291D02*
Y0285D01*
X0287D01*
X0288Y0286D01*
Y029D01*
X0287Y0291D01*
X0284D01*
X020451Y02935D02*
Y02875D01*
Y02895D01*
X02085Y02935D01*
X020551Y02905D01*
X02085Y02875D01*
X02145Y02935D02*
X02105D01*
Y02875D01*
X02145D01*
X02105Y02905D02*
X02125D01*
X02165Y02935D02*
Y02925D01*
X02185Y02905D01*
X02205Y02925D01*
Y02935D01*
X02185Y02905D02*
Y02875D01*
X02225D02*
Y02935D01*
X02255D01*
X02265Y02925D01*
Y02905D01*
X02255Y02895D01*
X02225D01*
X02285Y02875D02*
Y02915D01*
X02305Y02935D01*
X02325Y02915D01*
Y02875D01*
Y02905D01*
X02285D01*
X02345Y02935D02*
Y02875D01*
X023749D01*
X023849Y02885D01*
Y02925D01*
X023749Y02935D01*
X02345D01*
X00166Y04084D02*
Y04024D01*
Y04054D01*
X00206D01*
Y04084D01*
Y04024D01*
X00266Y04074D02*
X00256Y04084D01*
X00236D01*
X00226Y04074D01*
Y04034D01*
X00236Y04024D01*
X00256D01*
X00266Y04034D01*
Y04054D01*
X00246D01*
X02698Y03914D02*
X02658D01*
Y03884D01*
X02678D01*
X02658D01*
Y03854D01*
X02718Y03914D02*
X02738D01*
X02728D01*
Y03854D01*
X02718D01*
X02738D01*
X02768D02*
Y03914D01*
X02808Y03854D01*
Y03914D01*
X028679Y03904D02*
X028579Y03914D01*
X028379D01*
X028279Y03904D01*
Y03864D01*
X028379Y03854D01*
X028579D01*
X028679Y03864D01*
Y03884D01*
X028479D01*
X029279Y03914D02*
X028879D01*
Y03854D01*
X029279D01*
X028879Y03884D02*
X029079D01*
X029479Y03854D02*
Y03914D01*
X029779D01*
X029879Y03904D01*
Y03884D01*
X029779Y03874D01*
X029479D01*
X029679D02*
X029879Y03854D01*
X02041Y04104D02*
Y04044D01*
X02071D01*
X02081Y04054D01*
Y04094D01*
X02071Y04104D01*
X02041D01*
X02131D02*
X02111D01*
X02101Y04094D01*
Y04054D01*
X02111Y04044D01*
X02131D01*
X02141Y04054D01*
Y04094D01*
X02131Y04104D01*
X02191D02*
X02171D01*
X02161Y04094D01*
Y04054D01*
X02171Y04044D01*
X02191D01*
X022009Y04054D01*
Y04094D01*
X02191Y04104D01*
X022209Y04044D02*
Y04104D01*
X022509D01*
X022609Y04094D01*
Y04074D01*
X022509Y04064D01*
X022209D01*
X022409D02*
X022609Y04044D01*
X01206Y01233D02*
Y01173D01*
X01236D01*
X01246Y01183D01*
Y01223D01*
X01236Y01233D01*
X01206D01*
X01306Y01223D02*
X01296Y01233D01*
X01276D01*
X01266Y01223D01*
Y01183D01*
X01276Y01173D01*
X01296D01*
X01306Y01183D01*
X00582Y01889D02*
X00572Y01899D01*
X00552D01*
X00542Y01889D01*
Y01849D01*
X00552Y01839D01*
X00572D01*
X00582Y01849D01*
X00602Y01899D02*
Y01839D01*
Y01869D01*
X00642D01*
Y01899D01*
Y01839D01*
X00692Y01899D02*
X00672D01*
X00662Y01889D01*
Y01849D01*
X00672Y01839D01*
X00692D01*
X007019Y01849D01*
Y01889D01*
X00692Y01899D01*
X007219D02*
X007619D01*
X007419D01*
Y01839D01*
X02095Y01205D02*
Y01145D01*
X02125D01*
X02135Y01155D01*
Y01165D01*
X02125Y01175D01*
X02095D01*
X02125D01*
X02135Y01185D01*
Y01195D01*
X02125Y01205D01*
X02095D01*
X02195D02*
X02175D01*
X02185D01*
Y01155D01*
X02175Y01145D01*
X02165D01*
X02155Y01155D01*
X02215Y01205D02*
X02255D01*
X02235D01*
Y01145D01*
X02275Y01205D02*
Y01145D01*
X02315D01*
X0173Y012D02*
Y0114D01*
X0176D01*
X0177Y0115D01*
Y0116D01*
X0176Y0117D01*
X0173D01*
X0176D01*
X0177Y0118D01*
Y0119D01*
X0176Y012D01*
X0173D01*
X0183D02*
X0181D01*
X0182D01*
Y0115D01*
X0181Y0114D01*
X018D01*
X0179Y0115D01*
X0185Y012D02*
X0189D01*
X0187D01*
Y0114D01*
X0195Y0119D02*
X0194Y012D01*
X0192D01*
X0191Y0119D01*
Y0115D01*
X0192Y0114D01*
X0194D01*
X0195Y0115D01*
D16*
X01325Y01077D02*
D03*
M02*
