%TF.GenerationSoftware,Altium Limited,Altium Designer,21.3.2 (30)*%
G04 Layer_Color=8388736*
%FSLAX25Y25*%
%MOIN*%
%TF.SameCoordinates,C3D6B9D7-463A-470E-9858-FE52AE1E130A*%
%TF.FilePolarity,Negative*%
%TF.FileFunction,Soldermask,Top*%
%TF.Part,Single*%
G01*
G75*
%TA.AperFunction,ComponentPad*%
%ADD29R,0.08300X0.08300*%
%ADD30C,0.08300*%
%ADD31C,0.15800*%
%ADD32R,0.15800X0.15800*%
%ADD33R,0.08800X0.08800*%
%ADD34C,0.08800*%
%ADD35C,0.12800*%
%ADD36R,0.12800X0.12800*%
%ADD37R,0.15800X0.15800*%
%ADD38R,0.09300X0.09300*%
%ADD39C,0.09300*%
%ADD40R,0.08300X0.08300*%
%ADD41C,0.08706*%
%ADD42R,0.08706X0.08706*%
%ADD43R,0.08706X0.08706*%
%ADD44O,0.07400X0.10800*%
D29*
X158000Y214000D02*
D03*
Y394000D02*
D03*
D30*
Y224000D02*
D03*
Y234000D02*
D03*
Y244000D02*
D03*
Y254000D02*
D03*
Y264000D02*
D03*
Y274000D02*
D03*
Y284000D02*
D03*
Y294000D02*
D03*
Y304000D02*
D03*
Y314000D02*
D03*
Y324000D02*
D03*
Y334000D02*
D03*
Y344000D02*
D03*
Y354000D02*
D03*
Y364000D02*
D03*
Y374000D02*
D03*
Y384000D02*
D03*
X58000Y394000D02*
D03*
Y384000D02*
D03*
Y374000D02*
D03*
Y364000D02*
D03*
Y354000D02*
D03*
Y344000D02*
D03*
Y334000D02*
D03*
Y324000D02*
D03*
Y314000D02*
D03*
Y304000D02*
D03*
Y294000D02*
D03*
Y284000D02*
D03*
Y274000D02*
D03*
Y264000D02*
D03*
Y254000D02*
D03*
Y244000D02*
D03*
Y234000D02*
D03*
Y224000D02*
D03*
Y214000D02*
D03*
X269500Y299000D02*
D03*
Y309000D02*
D03*
Y329000D02*
D03*
X41000Y224000D02*
D03*
X238000Y363000D02*
D03*
Y353000D02*
D03*
Y343000D02*
D03*
Y333000D02*
D03*
Y323000D02*
D03*
Y313000D02*
D03*
Y303000D02*
D03*
X206500Y302000D02*
D03*
Y312000D02*
D03*
Y322000D02*
D03*
Y342000D02*
D03*
Y352000D02*
D03*
Y362000D02*
D03*
X268000Y21000D02*
D03*
Y52000D02*
D03*
X206000Y222500D02*
D03*
Y232500D02*
D03*
Y252500D02*
D03*
X269000Y367000D02*
D03*
Y357000D02*
D03*
Y347000D02*
D03*
X10000Y285500D02*
D03*
Y275500D02*
D03*
Y265500D02*
D03*
D31*
X22500Y17500D02*
D03*
X179500D02*
D03*
X33500Y151000D02*
D03*
Y110500D02*
D03*
D32*
X22500Y87500D02*
D03*
X179500D02*
D03*
D33*
X124000Y107500D02*
D03*
D34*
X154000D02*
D03*
D35*
X108500Y119500D02*
D03*
X60500Y167500D02*
D03*
X108500D02*
D03*
D36*
X84500Y109500D02*
D03*
X60500Y119500D02*
D03*
D37*
X33500Y171000D02*
D03*
Y130500D02*
D03*
D38*
X127000Y128000D02*
D03*
X141500Y176000D02*
D03*
D39*
X126500D02*
D03*
X158500Y128000D02*
D03*
X158000Y176000D02*
D03*
X173500D02*
D03*
X174000Y128000D02*
D03*
X142000D02*
D03*
X188500Y176000D02*
D03*
X189000Y128000D02*
D03*
D40*
X269500Y319000D02*
D03*
X238000Y373000D02*
D03*
X206500Y332000D02*
D03*
Y372000D02*
D03*
X268000Y31000D02*
D03*
Y42000D02*
D03*
X206000Y242500D02*
D03*
X269000Y377000D02*
D03*
X10000Y295500D02*
D03*
D41*
X41000Y214000D02*
D03*
Y234000D02*
D03*
Y244000D02*
D03*
Y254000D02*
D03*
Y264000D02*
D03*
Y274000D02*
D03*
Y284000D02*
D03*
Y294000D02*
D03*
Y304000D02*
D03*
Y314000D02*
D03*
Y324000D02*
D03*
Y334000D02*
D03*
Y344000D02*
D03*
Y354000D02*
D03*
Y364000D02*
D03*
Y374000D02*
D03*
Y384000D02*
D03*
Y394000D02*
D03*
X205500Y15000D02*
D03*
X215500D02*
D03*
X225500D02*
D03*
X235500D02*
D03*
X245500D02*
D03*
X174500Y384000D02*
D03*
Y374000D02*
D03*
Y364000D02*
D03*
Y354000D02*
D03*
Y344000D02*
D03*
Y334000D02*
D03*
Y324000D02*
D03*
Y314000D02*
D03*
Y304000D02*
D03*
Y294000D02*
D03*
Y284000D02*
D03*
Y274000D02*
D03*
Y264000D02*
D03*
Y254000D02*
D03*
Y244000D02*
D03*
Y234000D02*
D03*
Y224000D02*
D03*
X206500Y386000D02*
D03*
X242000Y148500D02*
D03*
D42*
X245500Y67000D02*
D03*
X235500D02*
D03*
X225500D02*
D03*
X215500D02*
D03*
X205500D02*
D03*
X212000Y148450D02*
D03*
D43*
X174500Y394000D02*
D03*
Y214000D02*
D03*
X206500Y396000D02*
D03*
D44*
X212500Y105500D02*
D03*
X222500D02*
D03*
X232500D02*
D03*
X174500Y106000D02*
D03*
X184500D02*
D03*
X194500D02*
D03*
%TF.MD5,620f252be840c9eb598cb9bc7d00d825*%
M02*
