G04*
G04 #@! TF.GenerationSoftware,Altium Limited,Altium Designer,21.3.2 (30)*
G04*
G04 Layer_Color=128*
%FSTAX24Y24*%
%MOIN*%
G70*
G04*
G04 #@! TF.SameCoordinates,F68F6C76-AA82-476B-A51A-8D37A50AFAF4*
G04*
G04*
G04 #@! TF.FilePolarity,Positive*
G04*
G01*
G75*
%ADD53C,0.0020*%
D53*
X0156Y0214D02*
X016D01*
X0158Y0212D02*
Y0216D01*
X0156Y0224D02*
X016D01*
X0158Y0222D02*
Y0226D01*
X0156Y0234D02*
X016D01*
X0158Y0232D02*
Y0236D01*
X0156Y0244D02*
X016D01*
X0158Y0242D02*
Y0246D01*
X0156Y0254D02*
X016D01*
X0158Y0252D02*
Y0256D01*
X0156Y0264D02*
X016D01*
X0158Y0262D02*
Y0266D01*
X0156Y0274D02*
X016D01*
X0158Y0272D02*
Y0276D01*
X0156Y0284D02*
X016D01*
X0158Y0282D02*
Y0286D01*
X0156Y0294D02*
X016D01*
X0158Y0292D02*
Y0296D01*
X0156Y0304D02*
X016D01*
X0158Y0302D02*
Y0306D01*
X0156Y0314D02*
X016D01*
X0158Y0312D02*
Y0316D01*
X0156Y0324D02*
X016D01*
X0158Y0322D02*
Y0326D01*
X0156Y0334D02*
X016D01*
X0158Y0332D02*
Y0336D01*
X0156Y0344D02*
X016D01*
X0158Y0342D02*
Y0346D01*
X0156Y0354D02*
X016D01*
X0158Y0352D02*
Y0356D01*
X0156Y0364D02*
X016D01*
X0158Y0362D02*
Y0366D01*
X0156Y0374D02*
X016D01*
X0158Y0372D02*
Y0376D01*
X0156Y0384D02*
X016D01*
X0158Y0382D02*
Y0386D01*
X0156Y0394D02*
X016D01*
X0158Y0392D02*
Y0396D01*
X0056Y0394D02*
X006D01*
X0058Y0392D02*
Y0396D01*
X0056Y0384D02*
X006D01*
X0058Y0382D02*
Y0386D01*
X0056Y0374D02*
X006D01*
X0058Y0372D02*
Y0376D01*
X0056Y0364D02*
X006D01*
X0058Y0362D02*
Y0366D01*
X0056Y0354D02*
X006D01*
X0058Y0352D02*
Y0356D01*
X0056Y0344D02*
X006D01*
X0058Y0342D02*
Y0346D01*
X0056Y0334D02*
X006D01*
X0058Y0332D02*
Y0336D01*
X0056Y0324D02*
X006D01*
X0058Y0322D02*
Y0326D01*
X0056Y0314D02*
X006D01*
X0058Y0312D02*
Y0316D01*
X0056Y0304D02*
X006D01*
X0058Y0302D02*
Y0306D01*
X0056Y0294D02*
X006D01*
X0058Y0292D02*
Y0296D01*
X0056Y0284D02*
X006D01*
X0058Y0282D02*
Y0286D01*
X0056Y0274D02*
X006D01*
X0058Y0272D02*
Y0276D01*
X0056Y0264D02*
X006D01*
X0058Y0262D02*
Y0266D01*
X0056Y0254D02*
X006D01*
X0058Y0252D02*
Y0256D01*
X0056Y0244D02*
X006D01*
X0058Y0242D02*
Y0246D01*
X0056Y0234D02*
X006D01*
X0058Y0232D02*
Y0236D01*
X0056Y0224D02*
X006D01*
X0058Y0222D02*
Y0226D01*
X0056Y0214D02*
X006D01*
X0058Y0212D02*
Y0216D01*
X0019Y00175D02*
X0026D01*
X00225Y0014D02*
Y0021D01*
X0176Y00175D02*
X0183D01*
X01795Y0014D02*
Y0021D01*
X0019Y00875D02*
X0026D01*
X00225Y0084D02*
Y0091D01*
X0176Y00875D02*
X0183D01*
X01795Y0084D02*
Y0091D01*
X0122Y01075D02*
X0126D01*
X0124Y01055D02*
Y01095D01*
X0152Y01075D02*
X0156D01*
X0154Y01055D02*
Y01095D01*
X010625Y01195D02*
X011075D01*
X01085Y011725D02*
Y012175D01*
X005825Y01675D02*
X006275D01*
X00605Y016525D02*
Y016975D01*
X008175Y01095D02*
X008725D01*
X00845Y010675D02*
Y011225D01*
X010575Y01675D02*
X011125D01*
X01085Y016475D02*
Y017025D01*
X005775Y01195D02*
X006325D01*
X00605Y011675D02*
Y012225D01*
X003Y0171D02*
X0037D01*
X00335Y01675D02*
Y01745D01*
X003Y0151D02*
X0037D01*
X00335Y01475D02*
Y01545D01*
X0125Y0128D02*
X0129D01*
X0127Y0126D02*
Y013D01*
X01245Y0176D02*
X01285D01*
X01265Y0174D02*
Y0178D01*
X003Y01305D02*
X0037D01*
X00335Y0127D02*
Y0134D01*
X003Y01105D02*
X0037D01*
X00335Y0107D02*
Y0114D01*
X02675Y0299D02*
X02715D01*
X02695Y0297D02*
Y0301D01*
X02675Y0309D02*
X02715D01*
X02695Y0307D02*
Y0311D01*
X02675Y0319D02*
X02715D01*
X02695Y0317D02*
Y0321D01*
X02675Y0329D02*
X02715D01*
X02695Y0327D02*
Y0331D01*
X0039Y0214D02*
X0043D01*
X0041Y0212D02*
Y0216D01*
X0039Y0224D02*
X0043D01*
X0041Y0222D02*
Y0226D01*
X0039Y0234D02*
X0043D01*
X0041Y0232D02*
Y0236D01*
X0039Y0244D02*
X0043D01*
X0041Y0242D02*
Y0246D01*
X0039Y0254D02*
X0043D01*
X0041Y0252D02*
Y0256D01*
X0039Y0264D02*
X0043D01*
X0041Y0262D02*
Y0266D01*
X0039Y0274D02*
X0043D01*
X0041Y0272D02*
Y0276D01*
X0039Y0284D02*
X0043D01*
X0041Y0282D02*
Y0286D01*
X0039Y0294D02*
X0043D01*
X0041Y0292D02*
Y0296D01*
X0039Y0304D02*
X0043D01*
X0041Y0302D02*
Y0306D01*
X0039Y0314D02*
X0043D01*
X0041Y0312D02*
Y0316D01*
X0039Y0324D02*
X0043D01*
X0041Y0322D02*
Y0326D01*
X0039Y0334D02*
X0043D01*
X0041Y0332D02*
Y0336D01*
X0039Y0344D02*
X0043D01*
X0041Y0342D02*
Y0346D01*
X0039Y0354D02*
X0043D01*
X0041Y0352D02*
Y0356D01*
X0039Y0364D02*
X0043D01*
X0041Y0362D02*
Y0366D01*
X0039Y0374D02*
X0043D01*
X0041Y0372D02*
Y0376D01*
X0039Y0384D02*
X0043D01*
X0041Y0382D02*
Y0386D01*
X0039Y0394D02*
X0043D01*
X0041Y0392D02*
Y0396D01*
X0236Y0373D02*
X024D01*
X0238Y0371D02*
Y0375D01*
X0236Y0363D02*
X024D01*
X0238Y0361D02*
Y0365D01*
X0236Y0353D02*
X024D01*
X0238Y0351D02*
Y0355D01*
X0236Y0343D02*
X024D01*
X0238Y0341D02*
Y0345D01*
X0236Y0333D02*
X024D01*
X0238Y0331D02*
Y0335D01*
X0236Y0323D02*
X024D01*
X0238Y0321D02*
Y0325D01*
X0236Y0313D02*
X024D01*
X0238Y0311D02*
Y0315D01*
X0236Y0303D02*
X024D01*
X0238Y0301D02*
Y0305D01*
X02045Y0302D02*
X02085D01*
X02065Y03D02*
Y0304D01*
X02045Y0312D02*
X02085D01*
X02065Y031D02*
Y0314D01*
X02045Y0322D02*
X02085D01*
X02065Y032D02*
Y0324D01*
X02045Y0332D02*
X02085D01*
X02065Y033D02*
Y0334D01*
X02045Y0342D02*
X02085D01*
X02065Y034D02*
Y0344D01*
X02045Y0352D02*
X02085D01*
X02065Y035D02*
Y0354D01*
X02045Y0362D02*
X02085D01*
X02065Y036D02*
Y0364D01*
X02045Y0372D02*
X02085D01*
X02065Y037D02*
Y0374D01*
X02035Y0015D02*
X02075D01*
X02055Y0013D02*
Y0017D01*
X02135Y0015D02*
X02175D01*
X02155Y0013D02*
Y0017D01*
X02235Y0015D02*
X02275D01*
X02255Y0013D02*
Y0017D01*
X02335Y0015D02*
X02375D01*
X02355Y0013D02*
Y0017D01*
X02435Y0015D02*
X02475D01*
X02455Y0013D02*
Y0017D01*
X0266Y0031D02*
X027D01*
X0268Y0029D02*
Y0033D01*
X0266Y0021D02*
X027D01*
X0268Y0019D02*
Y0023D01*
X0266Y0042D02*
X027D01*
X0268Y004D02*
Y0044D01*
X0266Y0052D02*
X027D01*
X0268Y005D02*
Y0054D01*
X02435Y0067D02*
X02475D01*
X02455Y0065D02*
Y0069D01*
X02335Y0067D02*
X02375D01*
X02355Y0065D02*
Y0069D01*
X02235Y0067D02*
X02275D01*
X02255Y0065D02*
Y0069D01*
X02135Y0067D02*
X02175D01*
X02155Y0065D02*
Y0069D01*
X02035Y0067D02*
X02075D01*
X02055Y0065D02*
Y0069D01*
X01725Y0394D02*
X01765D01*
X01745Y0392D02*
Y0396D01*
X01725Y0384D02*
X01765D01*
X01745Y0382D02*
Y0386D01*
X01725Y0374D02*
X01765D01*
X01745Y0372D02*
Y0376D01*
X01725Y0364D02*
X01765D01*
X01745Y0362D02*
Y0366D01*
X01725Y0354D02*
X01765D01*
X01745Y0352D02*
Y0356D01*
X01725Y0344D02*
X01765D01*
X01745Y0342D02*
Y0346D01*
X01725Y0334D02*
X01765D01*
X01745Y0332D02*
Y0336D01*
X01725Y0324D02*
X01765D01*
X01745Y0322D02*
Y0326D01*
X01725Y0314D02*
X01765D01*
X01745Y0312D02*
Y0316D01*
X01725Y0304D02*
X01765D01*
X01745Y0302D02*
Y0306D01*
X01725Y0294D02*
X01765D01*
X01745Y0292D02*
Y0296D01*
X01725Y0284D02*
X01765D01*
X01745Y0282D02*
Y0286D01*
X01725Y0274D02*
X01765D01*
X01745Y0272D02*
Y0276D01*
X01725Y0264D02*
X01765D01*
X01745Y0262D02*
Y0266D01*
X01725Y0254D02*
X01765D01*
X01745Y0252D02*
Y0256D01*
X01725Y0244D02*
X01765D01*
X01745Y0242D02*
Y0246D01*
X01725Y0234D02*
X01765D01*
X01745Y0232D02*
Y0236D01*
X01725Y0224D02*
X01765D01*
X01745Y0222D02*
Y0226D01*
X01725Y0214D02*
X01765D01*
X01745Y0212D02*
Y0216D01*
X01565Y0128D02*
X01605D01*
X01585Y0126D02*
Y013D01*
X0156Y0176D02*
X016D01*
X0158Y0174D02*
Y0178D01*
X01715Y0176D02*
X01755D01*
X01735Y0174D02*
Y0178D01*
X0172Y0128D02*
X0176D01*
X0174Y0126D02*
Y013D01*
X020423Y02225D02*
X020777D01*
X0206Y022073D02*
Y022427D01*
X020423Y02325D02*
X020777D01*
X0206Y023073D02*
Y023427D01*
X020423Y02425D02*
X020777D01*
X0206Y024073D02*
Y024427D01*
X020423Y02525D02*
X020777D01*
X0206Y025073D02*
Y025427D01*
X02045Y0386D02*
X02085D01*
X02065Y0384D02*
Y0388D01*
X02045Y0396D02*
X02085D01*
X02065Y0394D02*
Y0398D01*
X0267Y0377D02*
X0271D01*
X0269Y0375D02*
Y0379D01*
X0267Y0367D02*
X0271D01*
X0269Y0365D02*
Y0369D01*
X0267Y0357D02*
X0271D01*
X0269Y0355D02*
Y0359D01*
X0267Y0347D02*
X0271D01*
X0269Y0345D02*
Y0349D01*
X0008Y02955D02*
X0012D01*
X001Y02935D02*
Y02975D01*
X0008Y02855D02*
X0012D01*
X001Y02835D02*
Y02875D01*
X0008Y02755D02*
X0012D01*
X001Y02735D02*
Y02775D01*
X0008Y02655D02*
X0012D01*
X001Y02635D02*
Y02675D01*
X01395Y0176D02*
X01435D01*
X01415Y0174D02*
Y0178D01*
X014Y0128D02*
X0144D01*
X0142Y0126D02*
Y013D01*
X02109Y01055D02*
X02141D01*
X02125Y01039D02*
Y01071D01*
X02209Y01055D02*
X02241D01*
X02225Y01039D02*
Y01071D01*
X02309Y01055D02*
X02341D01*
X02325Y01039D02*
Y01071D01*
X01729Y0106D02*
X01761D01*
X01745Y01044D02*
Y01076D01*
X01829Y0106D02*
X01861D01*
X01845Y01044D02*
Y01076D01*
X01929Y0106D02*
X01961D01*
X01945Y01044D02*
Y01076D01*
X01865Y0176D02*
X01905D01*
X01885Y0174D02*
Y0178D01*
X0187Y0128D02*
X0191D01*
X0189Y0126D02*
Y013D01*
X021Y014845D02*
X0214D01*
X0212Y014645D02*
Y015045D01*
X024Y01485D02*
X0244D01*
X0242Y01465D02*
Y01505D01*
M02*
