%TF.GenerationSoftware,Altium Limited,Altium Designer,21.3.2 (30)*%
G04 Layer_Color=65535*
%FSLAX25Y25*%
%MOIN*%
%TF.SameCoordinates,C3D6B9D7-463A-470E-9858-FE52AE1E130A*%
%TF.FilePolarity,Positive*%
%TF.FileFunction,Legend,Top*%
%TF.Part,Single*%
G01*
G75*
%TA.AperFunction,NonConductor*%
%ADD45C,0.00787*%
%ADD46C,0.00700*%
%ADD47C,0.00400*%
%ADD48C,0.00800*%
%ADD49C,0.00500*%
%ADD50C,0.01000*%
%ADD51R,0.02000X0.12598*%
G36*
X25000Y120500D02*
X27500Y118000D01*
Y119500D01*
X30000D01*
Y121500D01*
X27500D01*
Y123000D01*
X25000Y120500D01*
D02*
G37*
G36*
Y161000D02*
X27500Y158500D01*
Y160000D01*
X30000D01*
Y162000D01*
X27500D01*
Y163500D01*
X25000Y161000D01*
D02*
G37*
D45*
X165756Y213528D02*
G03*
X165756Y213528I-394J0D01*
G01*
X279500Y294000D02*
Y334000D01*
X274500D02*
X279500D01*
X274500Y294000D02*
X279500D01*
Y297333D02*
X292833D01*
X294500Y299000D01*
X292833Y300667D02*
X294500Y299000D01*
X279500Y300667D02*
X292833D01*
X279500Y307333D02*
X292833D01*
X294500Y309000D01*
X292833Y310667D02*
X294500Y309000D01*
X279500Y310667D02*
X292833D01*
X279500Y317333D02*
X292833D01*
X294500Y319000D01*
X292833Y320667D02*
X294500Y319000D01*
X279500Y320667D02*
X292833D01*
X279500Y327333D02*
X292833D01*
X294500Y329000D01*
X292833Y330667D02*
X294500Y329000D01*
X279500Y330667D02*
X292833D01*
X274500Y294000D02*
Y334000D01*
X36000Y209000D02*
Y391500D01*
Y399000D01*
X17667Y212333D02*
X31000D01*
X16000Y214000D02*
X17667Y212333D01*
X16000Y214000D02*
X17667Y215667D01*
X31000D01*
X17667Y222333D02*
X31000D01*
X16000Y224000D02*
X17667Y222333D01*
X16000Y224000D02*
X17667Y225667D01*
X31000D01*
X17667Y232333D02*
X31000D01*
X16000Y234000D02*
X17667Y232333D01*
X16000Y234000D02*
X17667Y235667D01*
X31000D01*
X17667Y242333D02*
X31000D01*
X16000Y244000D02*
X17667Y242333D01*
X16000Y244000D02*
X17667Y245667D01*
X31000D01*
X17667Y252333D02*
X31000D01*
X16000Y254000D02*
X17667Y252333D01*
X16000Y254000D02*
X17667Y255667D01*
X31000D01*
X17667Y262333D02*
X31000D01*
X16000Y264000D02*
X17667Y262333D01*
X16000Y264000D02*
X17667Y265667D01*
X31000D01*
X17667Y272333D02*
X31000D01*
X16000Y274000D02*
X17667Y272333D01*
X16000Y274000D02*
X17667Y275667D01*
X31000D01*
X17667Y282333D02*
X31000D01*
X16000Y284000D02*
X17667Y282333D01*
X16000Y284000D02*
X17667Y285667D01*
X31000D01*
X17667Y292333D02*
X31000D01*
X16000Y294000D02*
X17667Y292333D01*
X16000Y294000D02*
X17667Y295667D01*
X31000D01*
X17667Y302333D02*
X31000D01*
X16000Y304000D02*
X17667Y302333D01*
X16000Y304000D02*
X17667Y305667D01*
X31000D01*
X17667Y312333D02*
X31000D01*
X16000Y314000D02*
X17667Y312333D01*
X16000Y314000D02*
X17667Y315667D01*
X31000D01*
X17667Y322333D02*
X31000D01*
X16000Y324000D02*
X17667Y322333D01*
X16000Y324000D02*
X17667Y325667D01*
X31000D01*
X17667Y332333D02*
X31000D01*
X16000Y334000D02*
X17667Y332333D01*
X16000Y334000D02*
X17667Y335667D01*
X31000D01*
X17667Y342333D02*
X31000D01*
X16000Y344000D02*
X17667Y342333D01*
X16000Y344000D02*
X17667Y345667D01*
X31000D01*
X17667Y352333D02*
X31000D01*
X16000Y354000D02*
X17667Y352333D01*
X16000Y354000D02*
X17667Y355667D01*
X31000D01*
X17667Y362333D02*
X31000D01*
X16000Y364000D02*
X17667Y362333D01*
X16000Y364000D02*
X17667Y365667D01*
X31000D01*
X17667Y372333D02*
X31000D01*
X16000Y374000D02*
X17667Y372333D01*
X16000Y374000D02*
X17667Y375667D01*
X31000D01*
X17667Y382333D02*
X31000D01*
X16000Y384000D02*
X17667Y382333D01*
X16000Y384000D02*
X17667Y385667D01*
X31000D01*
X17667Y392333D02*
X31000D01*
X16000Y394000D02*
X17667Y392333D01*
X16000Y394000D02*
X17667Y395667D01*
X31000D01*
Y209000D02*
X36000D01*
X31000D02*
Y399000D01*
X36000D01*
X243000Y298000D02*
Y378000D01*
Y299667D02*
X244667Y298000D01*
X248000Y374667D02*
X261333D01*
X263000Y373000D01*
X261333Y371333D02*
X263000Y373000D01*
X248000Y371333D02*
X261333D01*
X248000Y364667D02*
X261333D01*
X263000Y363000D01*
X261333Y361333D02*
X263000Y363000D01*
X248000Y361333D02*
X261333D01*
X248000Y354667D02*
X261333D01*
X263000Y353000D01*
X261333Y351333D02*
X263000Y353000D01*
X248000Y351333D02*
X261333D01*
X248000Y344667D02*
X261333D01*
X263000Y343000D01*
X261333Y341333D02*
X263000Y343000D01*
X248000Y341333D02*
X261333D01*
X248000Y334667D02*
X261333D01*
X263000Y333000D01*
X261333Y331333D02*
X263000Y333000D01*
X248000Y331333D02*
X261333D01*
X248000Y324667D02*
X261333D01*
X263000Y323000D01*
X261333Y321333D02*
X263000Y323000D01*
X248000Y321333D02*
X261333D01*
X248000Y314667D02*
X261333D01*
X263000Y313000D01*
X261333Y311333D02*
X263000Y313000D01*
X248000Y311333D02*
X261333D01*
X248000Y304667D02*
X261333D01*
X263000Y303000D01*
X261333Y301333D02*
X263000Y303000D01*
X248000Y301333D02*
X261333D01*
X243000Y378000D02*
X248000D01*
Y298000D02*
Y378000D01*
X243000Y298000D02*
X248000D01*
X211500Y297000D02*
X216500D01*
Y377000D01*
X211500D02*
X216500D01*
Y300333D02*
X229833D01*
X231500Y302000D01*
X229833Y303667D02*
X231500Y302000D01*
X216500Y303667D02*
X229833D01*
X216500Y310333D02*
X229833D01*
X231500Y312000D01*
X229833Y313667D02*
X231500Y312000D01*
X216500Y313667D02*
X229833D01*
X216500Y320333D02*
X229833D01*
X231500Y322000D01*
X229833Y323667D02*
X231500Y322000D01*
X216500Y323667D02*
X229833D01*
X216500Y330333D02*
X229833D01*
X231500Y332000D01*
X229833Y333667D02*
X231500Y332000D01*
X216500Y333667D02*
X229833D01*
X216500Y340333D02*
X229833D01*
X231500Y342000D01*
X229833Y343667D02*
X231500Y342000D01*
X216500Y343667D02*
X229833D01*
X216500Y350333D02*
X229833D01*
X231500Y352000D01*
X229833Y353667D02*
X231500Y352000D01*
X216500Y353667D02*
X229833D01*
X216500Y360333D02*
X229833D01*
X231500Y362000D01*
X229833Y363667D02*
X231500Y362000D01*
X216500Y363667D02*
X229833D01*
X216500Y370333D02*
X229833D01*
X231500Y372000D01*
X229833Y373667D02*
X231500Y372000D01*
X216500Y373667D02*
X229833D01*
X211500Y298667D02*
X213167Y297000D01*
X211500D02*
Y377000D01*
X200500Y20000D02*
X250500D01*
X203833Y25000D02*
Y38333D01*
X205500Y40000D01*
X207167Y38333D01*
Y25000D02*
Y38333D01*
X213833Y25000D02*
Y38333D01*
X215500Y40000D01*
X217167Y38333D01*
Y25000D02*
Y38333D01*
X223833Y25000D02*
Y38333D01*
X225500Y40000D01*
X227167Y38333D01*
Y25000D02*
Y38333D01*
X233833Y25000D02*
Y38333D01*
X235500Y40000D01*
X237167Y38333D01*
Y25000D02*
Y38333D01*
X243833Y25000D02*
Y38333D01*
X245500Y40000D01*
X247167Y38333D01*
Y25000D02*
Y38333D01*
X250500Y20000D02*
Y25000D01*
X200500D02*
X250500D01*
X200500Y20000D02*
Y25000D01*
Y62000D02*
X250500D01*
X247167Y43667D02*
Y57000D01*
X245500Y42000D02*
X247167Y43667D01*
X243833D02*
X245500Y42000D01*
X243833Y43667D02*
Y57000D01*
X237167Y43667D02*
Y57000D01*
X235500Y42000D02*
X237167Y43667D01*
X233833D02*
X235500Y42000D01*
X233833Y43667D02*
Y57000D01*
X227167Y43667D02*
Y57000D01*
X225500Y42000D02*
X227167Y43667D01*
X223833D02*
X225500Y42000D01*
X223833Y43667D02*
Y57000D01*
X217167Y43667D02*
Y57000D01*
X215500Y42000D02*
X217167Y43667D01*
X213833D02*
X215500Y42000D01*
X213833Y43667D02*
Y57000D01*
X207167Y43667D02*
Y57000D01*
X205500Y42000D02*
X207167Y43667D01*
X203833D02*
X205500Y42000D01*
X203833Y43667D02*
Y57000D01*
X200500D02*
Y62000D01*
Y57000D02*
X250500D01*
Y62000D01*
X179500Y216500D02*
Y399000D01*
Y209000D02*
Y216500D01*
X184500Y395667D02*
X197833D01*
X199500Y394000D01*
X197833Y392333D02*
X199500Y394000D01*
X184500Y392333D02*
X197833D01*
X184500Y385667D02*
X197833D01*
X199500Y384000D01*
X197833Y382333D02*
X199500Y384000D01*
X184500Y382333D02*
X197833D01*
X184500Y375667D02*
X197833D01*
X199500Y374000D01*
X197833Y372333D02*
X199500Y374000D01*
X184500Y372333D02*
X197833D01*
X184500Y365667D02*
X197833D01*
X199500Y364000D01*
X197833Y362333D02*
X199500Y364000D01*
X184500Y362333D02*
X197833D01*
X184500Y355667D02*
X197833D01*
X199500Y354000D01*
X197833Y352333D02*
X199500Y354000D01*
X184500Y352333D02*
X197833D01*
X184500Y345667D02*
X197833D01*
X199500Y344000D01*
X197833Y342333D02*
X199500Y344000D01*
X184500Y342333D02*
X197833D01*
X184500Y335667D02*
X197833D01*
X199500Y334000D01*
X197833Y332333D02*
X199500Y334000D01*
X184500Y332333D02*
X197833D01*
X184500Y325667D02*
X197833D01*
X199500Y324000D01*
X197833Y322333D02*
X199500Y324000D01*
X184500Y322333D02*
X197833D01*
X184500Y315667D02*
X197833D01*
X197833D02*
X199500Y314000D01*
X197833Y312333D02*
X199500Y314000D01*
X184500Y312333D02*
X197833D01*
X184500Y305667D02*
X197833D01*
X199500Y304000D01*
X197833Y302333D02*
X199500Y304000D01*
X184500Y302333D02*
X197833D01*
X184500Y295667D02*
X197833D01*
X199500Y294000D01*
X197833Y292333D02*
X199500Y294000D01*
X184500Y292333D02*
X197833D01*
X184500Y285667D02*
X197833D01*
X199500Y284000D01*
X197833Y282333D02*
X199500Y284000D01*
X184500Y282333D02*
X197833D01*
X184500Y275667D02*
X197833D01*
X199500Y274000D01*
X197833Y272333D02*
X199500Y274000D01*
X184500Y272333D02*
X197833D01*
X184500Y265667D02*
X197833D01*
X199500Y264000D01*
X197833Y262333D02*
X199500Y264000D01*
X184500Y262333D02*
X197833D01*
X184500Y255667D02*
X197833D01*
X199500Y254000D01*
X197833Y252333D02*
X199500Y254000D01*
X184500Y252333D02*
X197833D01*
X184500Y245667D02*
X197833D01*
X199500Y244000D01*
X197833Y242333D02*
X199500Y244000D01*
X184500Y242333D02*
X197833D01*
X184500Y235667D02*
X197833D01*
X199500Y234000D01*
X197833Y232333D02*
X199500Y234000D01*
X184500Y232333D02*
X197833D01*
X184500Y225667D02*
X197833D01*
X199500Y224000D01*
X197833Y222333D02*
X199500Y224000D01*
X184500Y222333D02*
X197833D01*
X184500Y215667D02*
X197833D01*
X199500Y214000D01*
X197833Y212333D02*
X199500Y214000D01*
X184500Y212333D02*
X197833D01*
X179500Y399000D02*
X184500D01*
Y209000D02*
Y399000D01*
X179500Y209000D02*
X184500D01*
X216000Y217500D02*
Y257500D01*
X211000D02*
X216000D01*
X211000Y217500D02*
X216000D01*
Y220833D02*
X229333D01*
X231000Y222500D01*
X229333Y224167D02*
X231000Y222500D01*
X216000Y224167D02*
X229333D01*
X216000Y230833D02*
X229333D01*
X231000Y232500D01*
X229333Y234167D02*
X231000Y232500D01*
X216000Y234167D02*
X229333D01*
X216000Y240833D02*
X229333D01*
X231000Y242500D01*
X229333Y244167D02*
X231000Y242500D01*
X216000Y244167D02*
X229333D01*
X216000Y250833D02*
X229333D01*
X231000Y252500D01*
X229333Y254167D02*
X231000Y252500D01*
X216000Y254167D02*
X229333D01*
X211000Y217500D02*
Y257500D01*
X216500Y381000D02*
Y401000D01*
X211500D02*
X216500D01*
X211500Y381000D02*
X216500D01*
X211500D02*
Y401000D01*
X216500Y384333D02*
X229833D01*
X231500Y386000D01*
X229833Y387667D02*
X231500Y386000D01*
X216500Y387667D02*
X229833D01*
X216500Y394333D02*
X229833D01*
X231500Y396000D01*
X229833Y397667D02*
X231500Y396000D01*
X216500Y397667D02*
X229833D01*
X274000Y342000D02*
Y382000D01*
X279000Y378667D02*
X292333D01*
X294000Y377000D01*
X292333Y375333D02*
X294000Y377000D01*
X279000Y375333D02*
X292333D01*
X279000Y368667D02*
X292333D01*
X294000Y367000D01*
X292333Y365333D02*
X294000Y367000D01*
X279000Y365333D02*
X292333D01*
X279000Y358667D02*
X292333D01*
X294000Y357000D01*
X292333Y355333D02*
X294000Y357000D01*
X279000Y355333D02*
X292333D01*
X279000Y348667D02*
X292333D01*
X294000Y347000D01*
X292333Y345333D02*
X294000Y347000D01*
X279000Y345333D02*
X292333D01*
X274000Y342000D02*
X279000D01*
X274000Y382000D02*
X279000D01*
Y342000D02*
Y382000D01*
X0Y260500D02*
Y300500D01*
Y260500D02*
X5000D01*
X0Y300500D02*
X5000D01*
X-13333Y297167D02*
X0D01*
X-15000Y295500D02*
X-13333Y297167D01*
X-15000Y295500D02*
X-13333Y293833D01*
X0D01*
X-13333Y287167D02*
X0D01*
X-15000Y285500D02*
X-13333Y287167D01*
X-15000Y285500D02*
X-13333Y283833D01*
X0D01*
X-13333Y277167D02*
X0D01*
X-15000Y275500D02*
X-13333Y277167D01*
X-15000Y275500D02*
X-13333Y273833D01*
X0D01*
X-13333Y267167D02*
X0D01*
X-15000Y265500D02*
X-13333Y267167D01*
X-15000Y265500D02*
X-13333Y263833D01*
X0D01*
X5000Y260500D02*
Y300500D01*
D46*
X90400Y122400D02*
G03*
X78800Y122500I-5850J-5750D01*
G01*
X86280Y141920D02*
G03*
X86280Y141920I-1781J0D01*
G01*
X79680Y163020D02*
G03*
X79680Y163020I-1781J0D01*
G01*
X94780Y162920D02*
G03*
X94780Y162920I-1781J0D01*
G01*
X28956Y174976D02*
G03*
X29495Y175518I4544J-3976D01*
G01*
X18940Y151000D02*
G03*
X18940Y151000I-640J0D01*
G01*
X18840Y171200D02*
G03*
X18840Y171200I-640J0D01*
G01*
X28895Y154904D02*
G03*
X29495Y155518I4605J-3904D01*
G01*
X28956Y134476D02*
G03*
X29495Y135018I4544J-3976D01*
G01*
X18940Y110500D02*
G03*
X18940Y110500I-640J0D01*
G01*
X18840Y130700D02*
G03*
X18840Y130700I-640J0D01*
G01*
X28895Y114404D02*
G03*
X29495Y115018I4605J-3904D01*
G01*
X234494Y109497D02*
G03*
X210848Y109821I-11897J-5240D01*
G01*
X196494Y109997D02*
G03*
X172848Y110321I-11897J-5240D01*
G01*
X131500Y105900D02*
Y107500D01*
Y109600D01*
X135600Y102500D02*
Y112200D01*
X128500Y107500D02*
X131500D01*
X146500D02*
X149500D01*
X131500Y101402D02*
Y107500D01*
Y101402D02*
X146500D01*
Y114000D01*
X131500D02*
X146500D01*
X131500Y107500D02*
Y114000D01*
X67300Y122400D02*
X78700D01*
X90500Y122300D02*
X101800D01*
X80600Y162100D02*
X84500Y158200D01*
Y143900D02*
Y158200D01*
X93000Y164700D02*
X95700Y167400D01*
X102300D01*
X74700D02*
X77300Y164800D01*
X67100Y167400D02*
X74700D01*
X53500Y102500D02*
Y180500D01*
X115500Y102500D02*
Y180500D01*
X53500Y102500D02*
X115500D01*
X53500Y180500D02*
X115500D01*
X84600Y116600D02*
Y139900D01*
X13500Y181000D02*
X15000D01*
Y180000D02*
Y181000D01*
X13500Y141000D02*
Y181000D01*
X29500D02*
X41400D01*
X43500Y141000D02*
Y181000D01*
X29250Y175250D02*
X37700Y166800D01*
X26300Y161200D02*
X41400D01*
X15500Y140400D02*
X18000D01*
X13500Y141000D02*
X28500D01*
X15300Y180000D02*
X18400D01*
Y181000D01*
X43500D01*
X28500Y141000D02*
X43500D01*
X23500D02*
Y181000D01*
X29200Y155300D02*
X37700Y146800D01*
X119000Y135500D02*
X133881D01*
X119000D02*
Y168300D01*
X133881D01*
Y135500D02*
Y168300D01*
X126600D02*
Y172100D01*
X13500Y140500D02*
X15000D01*
Y139500D02*
Y140500D01*
X13500Y100500D02*
Y140500D01*
X29500D02*
X41400D01*
X43500Y100500D02*
Y140500D01*
X29250Y134750D02*
X37700Y126300D01*
X26300Y120700D02*
X41400D01*
X15500Y99900D02*
X18000D01*
X13500Y100500D02*
X28500D01*
X15300Y139500D02*
X18400D01*
Y140500D01*
X43500D01*
X28500Y100500D02*
X43500D01*
X23500D02*
Y140500D01*
X29200Y114800D02*
X37700Y106300D01*
X150500Y135500D02*
X165381D01*
X150500D02*
Y168300D01*
X165381D01*
Y135500D02*
Y168300D01*
X158100D02*
Y172100D01*
X173600Y168300D02*
Y172100D01*
X180881Y135500D02*
Y168300D01*
X166000D02*
X180881D01*
X166000Y135500D02*
Y168300D01*
Y135500D02*
X180881D01*
X134619Y168500D02*
X149500D01*
Y135700D02*
Y168500D01*
X134619Y135700D02*
X149500D01*
X134619D02*
Y168500D01*
X141900Y131900D02*
Y135700D01*
X210966Y101476D02*
X212700Y99000D01*
X233000D02*
X234300Y101600D01*
X212700Y99000D02*
X233000D01*
X172966Y101976D02*
X174700Y99500D01*
X195000D02*
X196300Y102100D01*
X174700Y99500D02*
X195000D01*
X181619Y168500D02*
X196500D01*
Y135700D02*
Y168500D01*
X181619Y135700D02*
X196500D01*
X181619D02*
Y168500D01*
X188900Y131900D02*
Y135700D01*
D47*
X273905Y26000D02*
G03*
X273905Y26000I-5906J0D01*
G01*
Y47000D02*
G03*
X273905Y47000I-5906J0D01*
G01*
X268000Y24000D02*
X273000D01*
X268000D02*
X273000Y28000D01*
X263000Y24000D02*
X268000D01*
X263000Y28000D02*
X268000Y24000D01*
X263000Y28000D02*
X273000D01*
X263000Y49000D02*
X268000D01*
X263000Y45000D02*
X268000Y49000D01*
X273000D01*
X268000D02*
X273000Y45000D01*
X263000D02*
X273000D01*
D48*
X242410Y162900D02*
G03*
X242550Y162750I-15387J-14482D01*
G01*
D49*
X162921Y209079D02*
Y398843D01*
X53079Y209079D02*
Y398843D01*
Y209079D02*
X72567D01*
X143433D02*
X162921D01*
X143433Y184669D02*
Y209079D01*
X72567Y184669D02*
X143433D01*
X72567D02*
Y209079D01*
X124024Y398843D02*
X162921D01*
X124024D02*
Y402386D01*
X92016D02*
X124024D01*
X92016Y398843D02*
Y402386D01*
X53079Y398843D02*
X92016D01*
D50*
X90500Y51500D02*
Y60500D01*
X84500Y51500D02*
Y60500D01*
X78500Y51500D02*
Y61500D01*
X72500Y51500D02*
Y60500D01*
X66500Y51500D02*
Y61500D01*
X61500Y63500D02*
Y87500D01*
Y63500D02*
X63500Y61500D01*
X100500D01*
Y86500D01*
X99500Y87500D02*
X100500Y86500D01*
X62500Y87500D02*
X99500D01*
X110500Y17500D02*
Y51500D01*
Y17500D02*
X149500D01*
Y51500D01*
X111500D02*
X149500D01*
X14500Y9500D02*
X186500D01*
Y95500D01*
X14500D02*
X186500D01*
X14500Y9500D02*
Y95500D01*
X127000Y130500D02*
Y135500D01*
X158500Y130500D02*
Y135500D01*
X174000Y130500D02*
Y135500D01*
X141500Y168500D02*
Y173500D01*
X188500Y168500D02*
Y173500D01*
X165499Y28498D02*
X163500D01*
X162500Y27498D01*
Y23500D01*
X163500Y22500D01*
X165499D01*
X166499Y23500D01*
Y27498D01*
X165499Y28498D01*
X168498D02*
Y23500D01*
X169498Y22500D01*
X171497D01*
X172497Y23500D01*
Y28498D01*
X174496D02*
X178495D01*
X176496D01*
Y22500D01*
X180494Y25499D02*
X184493D01*
X166499Y81498D02*
X164500D01*
X163500Y80498D01*
Y76500D01*
X164500Y75500D01*
X166499D01*
X167499Y76500D01*
Y80498D01*
X166499Y81498D01*
X169498D02*
Y76500D01*
X170498Y75500D01*
X172497D01*
X173497Y76500D01*
Y81498D01*
X175496D02*
X179495D01*
X177496D01*
Y75500D01*
X181494Y78499D02*
X185493D01*
X183493Y80498D02*
Y76500D01*
X19500Y31498D02*
X21499D01*
X20500D01*
Y25500D01*
X19500D01*
X21499D01*
X24498D02*
Y31498D01*
X28497Y25500D01*
Y31498D01*
X30496Y28499D02*
X34495D01*
X19500Y78498D02*
X21499D01*
X20500D01*
Y72500D01*
X19500D01*
X21499D01*
X24498D02*
Y78498D01*
X28497Y72500D01*
Y78498D01*
X30496Y75499D02*
X34495D01*
X32496Y77498D02*
Y73500D01*
X217550Y148649D02*
X221549D01*
X219549Y150648D02*
Y146650D01*
X53000Y412498D02*
Y407500D01*
X54000Y406500D01*
X55999D01*
X56999Y407500D01*
Y412498D01*
X58998Y411498D02*
X59998Y412498D01*
X61997D01*
X62997Y411498D01*
Y410499D01*
X60997Y408499D01*
Y407500D02*
Y406500D01*
X15000Y104998D02*
Y99000D01*
X18999D01*
X20998Y103998D02*
X21998Y104998D01*
X23997D01*
X24997Y103998D01*
Y102999D01*
X22997Y100999D01*
Y100000D02*
Y99000D01*
X196300Y171098D02*
Y165100D01*
X200299D01*
X171100Y408398D02*
Y402400D01*
Y405399D01*
X175099D01*
Y408398D01*
Y402400D01*
X177098Y408398D02*
Y404399D01*
X179097Y402400D01*
X181097Y404399D01*
Y408398D01*
X205004Y71501D02*
Y77499D01*
X208003D01*
X209002Y76499D01*
Y74500D01*
X208003Y73500D01*
X205004D01*
X211002Y77499D02*
Y73500D01*
X213001Y71501D01*
X215000Y73500D01*
Y77499D01*
X220998Y76499D02*
X219999Y77499D01*
X217999D01*
X217000Y76499D01*
Y72501D01*
X217999Y71501D01*
X219999D01*
X220998Y72501D01*
X226996Y76499D02*
X225997Y77499D01*
X223997D01*
X222998Y76499D01*
Y72501D01*
X223997Y71501D01*
X225997D01*
X226996Y72501D01*
X206004Y4501D02*
Y10499D01*
X209003D01*
X210002Y9499D01*
Y7500D01*
X209003Y6500D01*
X206004D01*
X216000Y9499D02*
X215001Y10499D01*
X213001D01*
X212002Y9499D01*
Y5501D01*
X213001Y4501D01*
X215001D01*
X216000Y5501D01*
Y7500D01*
X214001D01*
X218000Y4501D02*
Y10499D01*
X221998Y4501D01*
Y10499D01*
X223998D02*
Y4501D01*
X226997D01*
X227996Y5501D01*
Y9499D01*
X226997Y10499D01*
X223998D01*
X244002Y287501D02*
Y293499D01*
X246001Y291500D01*
X248000Y293499D01*
Y287501D01*
X253998Y292499D02*
X252999Y293499D01*
X250999D01*
X250000Y292499D01*
Y288501D01*
X250999Y287501D01*
X252999D01*
X253998Y288501D01*
X160499Y183502D02*
X154501D01*
Y186501D01*
X155501Y187500D01*
X157500D01*
X158500Y186501D01*
Y183502D01*
Y185501D02*
X160499Y187500D01*
X154501Y189500D02*
X160499D01*
Y193498D01*
X142499Y181507D02*
X136501D01*
Y184505D01*
X137501Y185505D01*
X139500D01*
X140500Y184505D01*
Y181507D01*
Y183506D02*
X142499Y185505D01*
X136501Y187504D02*
X142499D01*
Y191503D01*
X137501Y197501D02*
X136501Y196502D01*
Y194502D01*
X137501Y193503D01*
X141499D01*
X142499Y194502D01*
Y196502D01*
X141499Y197501D01*
X139500D01*
Y195502D01*
X142499Y199501D02*
X136501D01*
Y202500D01*
X137501Y203499D01*
X139500D01*
X140500Y202500D01*
Y199501D01*
Y201500D02*
X142499Y203499D01*
X136501Y209497D02*
Y205499D01*
X142499D01*
Y209497D01*
X139500Y205499D02*
Y207498D01*
X136501Y215495D02*
Y211497D01*
X142499D01*
Y215495D01*
X139500Y211497D02*
Y213496D01*
X142499Y217495D02*
X136501D01*
X142499Y221494D01*
X136501D01*
X190999Y184003D02*
X185001D01*
Y187002D01*
X186001Y188001D01*
X188000D01*
X189000Y187002D01*
Y184003D01*
Y186002D02*
X190999Y188001D01*
X185001Y190001D02*
X190999D01*
Y193999D01*
Y195999D02*
X185001D01*
Y198998D01*
X186001Y199997D01*
X188000D01*
X189000Y198998D01*
Y195999D01*
Y197998D02*
X190999Y199997D01*
X128999Y182004D02*
X123001D01*
Y185003D01*
X124001Y186003D01*
X126000D01*
X127000Y185003D01*
Y182004D01*
Y184004D02*
X128999Y186003D01*
X123001Y188003D02*
X128999D01*
Y191002D01*
X127999Y192001D01*
X124001D01*
X123001Y191002D01*
Y188003D01*
Y197000D02*
Y195000D01*
X124001Y194001D01*
X127999D01*
X128999Y195000D01*
Y197000D01*
X127999Y197999D01*
X124001D01*
X123001Y197000D01*
Y202998D02*
Y200998D01*
X124001Y199999D01*
X127999D01*
X128999Y200998D01*
Y202998D01*
X127999Y203997D01*
X124001D01*
X123001Y202998D01*
X128999Y205997D02*
X123001D01*
Y208996D01*
X124001Y209996D01*
X126000D01*
X127000Y208996D01*
Y205997D01*
Y207996D02*
X128999Y209996D01*
X176499Y138005D02*
X170501D01*
Y141004D01*
X171501Y142003D01*
X173500D01*
X174500Y141004D01*
Y138005D01*
Y140004D02*
X176499Y142003D01*
X171501Y148001D02*
X170501Y147002D01*
Y145002D01*
X171501Y144003D01*
X175499D01*
X176499Y145002D01*
Y147002D01*
X175499Y148001D01*
X170501Y150001D02*
Y153999D01*
Y152000D01*
X176499D01*
Y155999D02*
X170501D01*
Y158998D01*
X171501Y159997D01*
X173500D01*
X174500Y158998D01*
Y155999D01*
Y157998D02*
X176499Y159997D01*
X171501Y165996D02*
X170501Y164996D01*
Y162996D01*
X171501Y161997D01*
X175499D01*
X176499Y162996D01*
Y164996D01*
X175499Y165996D01*
X10499Y160002D02*
X4501D01*
Y163001D01*
X5501Y164000D01*
X7500D01*
X8500Y163001D01*
Y160002D01*
X5501Y169998D02*
X4501Y168999D01*
Y166999D01*
X5501Y166000D01*
X9499D01*
X10499Y166999D01*
Y168999D01*
X9499Y169998D01*
X11999Y108004D02*
X6001D01*
Y111003D01*
X7001Y112002D01*
X9000D01*
X10000Y111003D01*
Y108004D01*
X11999Y114002D02*
X8000D01*
X6001Y116001D01*
X8000Y118000D01*
X11999D01*
X9000D01*
Y114002D01*
X6001Y120000D02*
X11999D01*
Y122999D01*
X10999Y123998D01*
X7001D01*
X6001Y122999D01*
Y120000D01*
Y125998D02*
Y129997D01*
Y127997D01*
X11999D01*
X261000Y64698D02*
Y58700D01*
X264999D01*
X270997Y64698D02*
X266998D01*
Y58700D01*
X270997D01*
X266998Y61699D02*
X268997D01*
X272996Y64698D02*
Y58700D01*
X275995D01*
X276995Y59700D01*
Y63698D01*
X275995Y64698D01*
X272996D01*
X278994Y58700D02*
Y64698D01*
X281993D01*
X282993Y63698D01*
Y61699D01*
X281993Y60699D01*
X278994D01*
X280994D02*
X282993Y58700D01*
X264504Y16999D02*
Y11001D01*
X268502D01*
X274500Y16999D02*
X270502D01*
Y11001D01*
X274500D01*
X270502Y14000D02*
X272501D01*
X276500Y16999D02*
Y11001D01*
X279499D01*
X280498Y12001D01*
Y15999D01*
X279499Y16999D01*
X276500D01*
X286496Y15999D02*
X285497Y16999D01*
X283497D01*
X282498Y15999D01*
Y12001D01*
X283497Y11001D01*
X285497D01*
X286496Y12001D01*
Y14000D01*
X284497D01*
X272003Y290999D02*
Y285001D01*
X276001D01*
X281999Y289999D02*
X281000Y290999D01*
X279000D01*
X278001Y289999D01*
Y286001D01*
X279000Y285001D01*
X281000D01*
X281999Y286001D01*
X283999Y290999D02*
Y285001D01*
X286998D01*
X287997Y286001D01*
Y289999D01*
X286998Y290999D01*
X283999D01*
X204505Y293499D02*
Y287501D01*
Y289500D01*
X208504Y293499D01*
X205505Y290500D01*
X208504Y287501D01*
X214502Y293499D02*
X210504D01*
Y287501D01*
X214502D01*
X210504Y290500D02*
X212503D01*
X216502Y293499D02*
Y292499D01*
X218501Y290500D01*
X220500Y292499D01*
Y293499D01*
X218501Y290500D02*
Y287501D01*
X222500D02*
Y293499D01*
X225499D01*
X226498Y292499D01*
Y290500D01*
X225499Y289500D01*
X222500D01*
X228498Y287501D02*
Y291500D01*
X230497Y293499D01*
X232497Y291500D01*
Y287501D01*
Y290500D01*
X228498D01*
X234496Y293499D02*
Y287501D01*
X237495D01*
X238494Y288501D01*
Y292499D01*
X237495Y293499D01*
X234496D01*
X16600Y408398D02*
Y402400D01*
Y405399D01*
X20599D01*
Y408398D01*
Y402400D01*
X26597Y407398D02*
X25597Y408398D01*
X23598D01*
X22598Y407398D01*
Y403400D01*
X23598Y402400D01*
X25597D01*
X26597Y403400D01*
Y405399D01*
X24597D01*
X269799Y391398D02*
X265800D01*
Y388399D01*
X267799D01*
X265800D01*
Y385400D01*
X271798Y391398D02*
X273797D01*
X272798D01*
Y385400D01*
X271798D01*
X273797D01*
X276796D02*
Y391398D01*
X280795Y385400D01*
Y391398D01*
X286793Y390398D02*
X285793Y391398D01*
X283794D01*
X282794Y390398D01*
Y386400D01*
X283794Y385400D01*
X285793D01*
X286793Y386400D01*
Y388399D01*
X284794D01*
X292791Y391398D02*
X288793D01*
Y385400D01*
X292791D01*
X288793Y388399D02*
X290792D01*
X294791Y385400D02*
Y391398D01*
X297790D01*
X298789Y390398D01*
Y388399D01*
X297790Y387399D01*
X294791D01*
X296790D02*
X298789Y385400D01*
X204100Y410398D02*
Y404400D01*
X207099D01*
X208099Y405400D01*
Y409398D01*
X207099Y410398D01*
X204100D01*
X213097D02*
X211098D01*
X210098Y409398D01*
Y405400D01*
X211098Y404400D01*
X213097D01*
X214097Y405400D01*
Y409398D01*
X213097Y410398D01*
X219095D02*
X217096D01*
X216096Y409398D01*
Y405400D01*
X217096Y404400D01*
X219095D01*
X220095Y405400D01*
Y409398D01*
X219095Y410398D01*
X222094Y404400D02*
Y410398D01*
X225093D01*
X226093Y409398D01*
Y407399D01*
X225093Y406399D01*
X222094D01*
X224094D02*
X226093Y404400D01*
X120600Y123298D02*
Y117300D01*
X123599D01*
X124599Y118300D01*
Y122298D01*
X123599Y123298D01*
X120600D01*
X130597Y122298D02*
X129597Y123298D01*
X127598D01*
X126598Y122298D01*
Y118300D01*
X127598Y117300D01*
X129597D01*
X130597Y118300D01*
X58199Y188898D02*
X57199Y189898D01*
X55200D01*
X54200Y188898D01*
Y184900D01*
X55200Y183900D01*
X57199D01*
X58199Y184900D01*
X60198Y189898D02*
Y183900D01*
Y186899D01*
X64197D01*
Y189898D01*
Y183900D01*
X69195Y189898D02*
X67196D01*
X66196Y188898D01*
Y184900D01*
X67196Y183900D01*
X69195D01*
X70195Y184900D01*
Y188898D01*
X69195Y189898D01*
X72194D02*
X76193D01*
X74194D01*
Y183900D01*
X209504Y120499D02*
Y114501D01*
X212503D01*
X213502Y115501D01*
Y116500D01*
X212503Y117500D01*
X209504D01*
X212503D01*
X213502Y118500D01*
Y119499D01*
X212503Y120499D01*
X209504D01*
X219500D02*
X217501D01*
X218501D01*
Y115501D01*
X217501Y114501D01*
X216501D01*
X215502Y115501D01*
X221500Y120499D02*
X225498D01*
X223499D01*
Y114501D01*
X227498Y120499D02*
Y114501D01*
X231497D01*
X173004Y119999D02*
Y114001D01*
X176003D01*
X177002Y115001D01*
Y116000D01*
X176003Y117000D01*
X173004D01*
X176003D01*
X177002Y118000D01*
Y118999D01*
X176003Y119999D01*
X173004D01*
X183000D02*
X181001D01*
X182001D01*
Y115001D01*
X181001Y114001D01*
X180001D01*
X179002Y115001D01*
X185000Y119999D02*
X188998D01*
X186999D01*
Y114001D01*
X194997Y118999D02*
X193997Y119999D01*
X191997D01*
X190998Y118999D01*
Y115001D01*
X191997Y114001D01*
X193997D01*
X194997Y115001D01*
D51*
X132500Y107701D02*
D03*
%TF.MD5,aa51ff2654459b4ad5ea019e10b71a13*%
M02*
