M48
;Layer_Color=9474304
;FILE_FORMAT=2:4
INCH,TZ
;TYPE=PLATED
T1F00S00C0.0320
T2F00S00C0.0354
T3F00S00C0.0400
T4F00S00C0.0450
T5F00S00C0.0550
T6F00S00C0.0700
%
T01
X22250Y10550
X23250
X21250
X19450Y10600
X18450
X17450
T02
X20600Y22250
Y23250
Y24250
Y25250
T03
X20550Y1500
X21550
Y6700
X20550
X22550
X23550
X24550
X26800Y5200
Y4200
Y3100
Y2100
X24550Y1500
X23550
X22550
X24200Y14850
X21200Y14845
X18900Y12800
X17400
X15850
X14200
X12700
X12400Y10750
X15400
X15800Y17600
X17350
X18850
X14150
X12650
X15800Y21400
Y22400
X17450
Y21400
X5800
Y22400
X4100
Y21400
Y23400
Y24400
Y25400
Y26400
Y27400
Y28400
Y29400
Y30400
Y31400
Y32400
Y33400
Y34400
Y35400
Y36400
Y37400
X5800
Y36400
Y35400
Y34400
Y33400
Y32400
Y31400
Y30400
Y29400
Y28400
Y27400
Y26400
Y25400
Y24400
Y23400
X1000Y26550
Y27550
Y28550
Y29550
X15800Y29400
Y28400
Y27400
Y26400
Y25400
Y24400
Y23400
X17450
Y24400
Y25400
Y26400
Y27400
Y28400
Y29400
Y30400
Y31400
Y32400
Y33400
Y34400
Y35400
Y36400
Y37400
X15800
Y36400
Y35400
Y34400
Y33400
Y32400
Y31400
Y30400
X20650Y30200
Y31200
Y32200
Y33200
Y34200
Y35200
Y36200
Y37200
X23800Y37300
Y36300
Y35300
Y34300
Y33300
Y32300
Y31300
Y30300
X26950Y29900
Y30900
Y31900
Y32900
X26900Y34700
Y35700
Y36700
Y37700
X20650Y38600
Y39600
X17450Y39400
Y38400
X15800
Y39400
X5800
Y38400
X4100
Y39400
T04
X10850Y11950
X6050Y16750
T05
X8450Y10950
X10850Y16750
X6050Y11950
T06
X2250Y1750
X17950
Y8750
X2250
X3350Y11050
Y13050
Y15100
Y17100
M30
