G04*
G04 #@! TF.GenerationSoftware,Altium Limited,Altium Designer,21.3.2 (30)*
G04*
G04 Layer_Color=128*
%FSTAX25Y25*%
%MOIN*%
G70*
G04*
G04 #@! TF.SameCoordinates,F71A3992-D9C6-49B2-A255-B3BA7863061E*
G04*
G04*
G04 #@! TF.FilePolarity,Positive*
G04*
G01*
G75*
%ADD53C,0.00200*%
D53*
X015625Y0214D02*
X015975D01*
X0158Y021225D02*
Y021575D01*
X015625Y0224D02*
X015975D01*
X0158Y022225D02*
Y022575D01*
X015625Y0234D02*
X015975D01*
X0158Y023225D02*
Y023575D01*
X015625Y0244D02*
X015975D01*
X0158Y024225D02*
Y024575D01*
X015625Y0254D02*
X015975D01*
X0158Y025225D02*
Y025575D01*
X015625Y0264D02*
X015975D01*
X0158Y026225D02*
Y026575D01*
X015625Y0274D02*
X015975D01*
X0158Y027225D02*
Y027575D01*
X015625Y0284D02*
X015975D01*
X0158Y028225D02*
Y028575D01*
X015625Y0294D02*
X015975D01*
X0158Y029225D02*
Y029575D01*
X015625Y0304D02*
X015975D01*
X0158Y030225D02*
Y030575D01*
X015625Y0314D02*
X015975D01*
X0158Y031225D02*
Y031575D01*
X015625Y0324D02*
X015975D01*
X0158Y032225D02*
Y032575D01*
X015625Y0334D02*
X015975D01*
X0158Y033225D02*
Y033575D01*
X015625Y0344D02*
X015975D01*
X0158Y034225D02*
Y034575D01*
X015625Y0354D02*
X015975D01*
X0158Y035225D02*
Y035575D01*
X0155992Y0364D02*
X0160008D01*
X0158Y0361992D02*
Y0366008D01*
X0155992Y0374D02*
X0160008D01*
X0158Y0371992D02*
Y0376008D01*
X0155992Y0384D02*
X0160008D01*
X0158Y0381992D02*
Y0386008D01*
X0155992Y0394D02*
X0160008D01*
X0158Y0391992D02*
Y0396008D01*
X005625Y0394D02*
X005975D01*
X0058Y039225D02*
Y039575D01*
X005625Y0384D02*
X005975D01*
X0058Y038225D02*
Y038575D01*
X005625Y0374D02*
X005975D01*
X0058Y037225D02*
Y037575D01*
X005625Y0364D02*
X005975D01*
X0058Y036225D02*
Y036575D01*
X005625Y0354D02*
X005975D01*
X0058Y035225D02*
Y035575D01*
X005625Y0344D02*
X005975D01*
X0058Y034225D02*
Y034575D01*
X005625Y0334D02*
X005975D01*
X0058Y033225D02*
Y033575D01*
X005625Y0324D02*
X005975D01*
X0058Y032225D02*
Y032575D01*
X005625Y0314D02*
X005975D01*
X0058Y031225D02*
Y031575D01*
X005625Y0304D02*
X005975D01*
X0058Y030225D02*
Y030575D01*
X005625Y0294D02*
X005975D01*
X0058Y029225D02*
Y029575D01*
X005625Y0284D02*
X005975D01*
X0058Y028225D02*
Y028575D01*
X005625Y0274D02*
X005975D01*
X0058Y027225D02*
Y027575D01*
X005625Y0264D02*
X005975D01*
X0058Y026225D02*
Y026575D01*
X005625Y0254D02*
X005975D01*
X0058Y025225D02*
Y025575D01*
X005625Y0244D02*
X005975D01*
X0058Y024225D02*
Y024575D01*
X005625Y0234D02*
X005975D01*
X0058Y023225D02*
Y023575D01*
X005625Y0224D02*
X005975D01*
X0058Y022225D02*
Y022575D01*
X005625Y0214D02*
X005975D01*
X0058Y021225D02*
Y021575D01*
X0019Y00175D02*
X0026D01*
X00225Y0014D02*
Y0021D01*
X0176Y00175D02*
X0183D01*
X01795Y0014D02*
Y0021D01*
X0019Y00875D02*
X0026D01*
X00225Y0084D02*
Y0091D01*
X0176Y00875D02*
X0183D01*
X01795Y0084D02*
Y0091D01*
X012225Y01075D02*
X012575D01*
X0124Y010575D02*
Y010925D01*
X015225Y01075D02*
X015575D01*
X0154Y010575D02*
Y010925D01*
X010625Y01195D02*
X011075D01*
X01085Y011725D02*
Y012175D01*
X005825Y01675D02*
X006275D01*
X00605Y016525D02*
Y016975D01*
X008175Y01095D02*
X008725D01*
X00845Y010675D02*
Y011225D01*
X010575Y01675D02*
X011125D01*
X01085Y016475D02*
Y017025D01*
X005775Y01195D02*
X006325D01*
X00605Y011675D02*
Y012225D01*
X003Y0171D02*
X0037D01*
X00335Y01675D02*
Y01745D01*
X003Y0151D02*
X0037D01*
X00335Y01475D02*
Y01545D01*
X012525Y0128D02*
X012875D01*
X0127Y012625D02*
Y012975D01*
X012475Y0176D02*
X012825D01*
X01265Y017425D02*
Y017775D01*
X003Y01305D02*
X0037D01*
X00335Y0127D02*
Y0134D01*
X003Y01105D02*
X0037D01*
X00335Y0107D02*
Y0114D01*
X0267728Y0299D02*
X0271272D01*
X02695Y0297228D02*
Y0300772D01*
X0267728Y0309D02*
X0271272D01*
X02695Y0307228D02*
Y0310772D01*
X0267728Y0319D02*
X0271272D01*
X02695Y0317228D02*
Y0320772D01*
X0267728Y0329D02*
X0271272D01*
X02695Y0327228D02*
Y0330772D01*
X0039228Y0214D02*
X0042772D01*
X0041Y0212228D02*
Y0215772D01*
X0039228Y0224D02*
X0042772D01*
X0041Y0222228D02*
Y0225772D01*
X0039228Y0234D02*
X0042772D01*
X0041Y0232228D02*
Y0235772D01*
X0039228Y0244D02*
X0042772D01*
X0041Y0242228D02*
Y0245772D01*
X0039228Y0254D02*
X0042772D01*
X0041Y0252228D02*
Y0255772D01*
X0039228Y0264D02*
X0042772D01*
X0041Y0262228D02*
Y0265772D01*
X0039228Y0274D02*
X0042772D01*
X0041Y0272228D02*
Y0275772D01*
X0039228Y0284D02*
X0042772D01*
X0041Y0282228D02*
Y0285772D01*
X0039228Y0294D02*
X0042772D01*
X0041Y0292228D02*
Y0295772D01*
X0039228Y0304D02*
X0042772D01*
X0041Y0302228D02*
Y0305772D01*
X0039228Y0314D02*
X0042772D01*
X0041Y0312228D02*
Y0315772D01*
X0039228Y0324D02*
X0042772D01*
X0041Y0322228D02*
Y0325772D01*
X0039228Y0334D02*
X0042772D01*
X0041Y0332228D02*
Y0335772D01*
X0039228Y0344D02*
X0042772D01*
X0041Y0342228D02*
Y0345772D01*
X0039228Y0354D02*
X0042772D01*
X0041Y0352228D02*
Y0355772D01*
X0039228Y0364D02*
X0042772D01*
X0041Y0362228D02*
Y0365772D01*
X0039228Y0374D02*
X0042772D01*
X0041Y0372228D02*
Y0375772D01*
X0039228Y0384D02*
X0042772D01*
X0041Y0382228D02*
Y0385772D01*
X0039228Y0394D02*
X0042772D01*
X0041Y0392228D02*
Y0395772D01*
X0236228Y0373D02*
X0239772D01*
X0238Y0371228D02*
Y0374772D01*
X0236228Y0363D02*
X0239772D01*
X0238Y0361228D02*
Y0364772D01*
X0236228Y0353D02*
X0239772D01*
X0238Y0351228D02*
Y0354772D01*
X0236228Y0343D02*
X0239772D01*
X0238Y0341228D02*
Y0344772D01*
X0236228Y0333D02*
X0239772D01*
X0238Y0331228D02*
Y0334772D01*
X0236228Y0323D02*
X0239772D01*
X0238Y0321228D02*
Y0324772D01*
X0236228Y0313D02*
X0239772D01*
X0238Y0311228D02*
Y0314772D01*
X0236228Y0303D02*
X0239772D01*
X0238Y0301228D02*
Y0304772D01*
X0204728Y0302D02*
X0208272D01*
X02065Y0300228D02*
Y0303772D01*
X0204728Y0312D02*
X0208272D01*
X02065Y0310228D02*
Y0313772D01*
X0204728Y0322D02*
X0208272D01*
X02065Y0320228D02*
Y0323772D01*
X0204728Y0332D02*
X0208272D01*
X02065Y0330228D02*
Y0333772D01*
X0204728Y0342D02*
X0208272D01*
X02065Y0340228D02*
Y0343772D01*
X0204728Y0352D02*
X0208272D01*
X02065Y0350228D02*
Y0353772D01*
X0204728Y0362D02*
X0208272D01*
X02065Y0360228D02*
Y0363772D01*
X0204728Y0372D02*
X0208272D01*
X02065Y0370228D02*
Y0373772D01*
X0203728Y0015D02*
X0207272D01*
X02055Y0013228D02*
Y0016772D01*
X0213728Y0015D02*
X0217272D01*
X02155Y0013228D02*
Y0016772D01*
X0223728Y0015D02*
X0227272D01*
X02255Y0013228D02*
Y0016772D01*
X0233728Y0015D02*
X0237272D01*
X02355Y0013228D02*
Y0016772D01*
X0243728Y0015D02*
X0247272D01*
X02455Y0013228D02*
Y0016772D01*
X0266Y0031D02*
X027D01*
X0268Y0029D02*
Y0033D01*
X0266Y0021D02*
X027D01*
X0268Y0019D02*
Y0023D01*
X0266Y0042D02*
X027D01*
X0268Y004D02*
Y0044D01*
X0266Y0052D02*
X027D01*
X0268Y005D02*
Y0054D01*
X0243728Y0067D02*
X0247272D01*
X02455Y0065228D02*
Y0068772D01*
X0233728Y0067D02*
X0237272D01*
X02355Y0065228D02*
Y0068772D01*
X0223728Y0067D02*
X0227272D01*
X02255Y0065228D02*
Y0068772D01*
X0213728Y0067D02*
X0217272D01*
X02155Y0065228D02*
Y0068772D01*
X0203728Y0067D02*
X0207272D01*
X02055Y0065228D02*
Y0068772D01*
X0172728Y0394D02*
X0176272D01*
X01745Y0392228D02*
Y0395772D01*
X0172728Y0384D02*
X0176272D01*
X01745Y0382228D02*
Y0385772D01*
X0172728Y0374D02*
X0176272D01*
X01745Y0372228D02*
Y0375772D01*
X0172728Y0364D02*
X0176272D01*
X01745Y0362228D02*
Y0365772D01*
X0172728Y0354D02*
X0176272D01*
X01745Y0352228D02*
Y0355772D01*
X0172728Y0344D02*
X0176272D01*
X01745Y0342228D02*
Y0345772D01*
X0172728Y0334D02*
X0176272D01*
X01745Y0332228D02*
Y0335772D01*
X0172728Y0324D02*
X0176272D01*
X01745Y0322228D02*
Y0325772D01*
X0172728Y0314D02*
X0176272D01*
X01745Y0312228D02*
Y0315772D01*
X0172728Y0304D02*
X0176272D01*
X01745Y0302228D02*
Y0305772D01*
X0172728Y0294D02*
X0176272D01*
X01745Y0292228D02*
Y0295772D01*
X0172728Y0284D02*
X0176272D01*
X01745Y0282228D02*
Y0285772D01*
X0172728Y0274D02*
X0176272D01*
X01745Y0272228D02*
Y0275772D01*
X0172728Y0264D02*
X0176272D01*
X01745Y0262228D02*
Y0265772D01*
X0172728Y0254D02*
X0176272D01*
X01745Y0252228D02*
Y0255772D01*
X0172728Y0244D02*
X0176272D01*
X01745Y0242228D02*
Y0245772D01*
X0172728Y0234D02*
X0176272D01*
X01745Y0232228D02*
Y0235772D01*
X0172728Y0224D02*
X0176272D01*
X01745Y0222228D02*
Y0225772D01*
X0172728Y0214D02*
X0176272D01*
X01745Y0212228D02*
Y0215772D01*
X015675Y0128D02*
X016025D01*
X01585Y012625D02*
Y012975D01*
X015625Y0176D02*
X015975D01*
X0158Y017425D02*
Y017775D01*
X017175Y0176D02*
X017525D01*
X01735Y017425D02*
Y017775D01*
X017225Y0128D02*
X017575D01*
X0174Y012625D02*
Y012975D01*
X0204228Y02225D02*
X0207772D01*
X0206Y0220728D02*
Y0224272D01*
X0204228Y02325D02*
X0207772D01*
X0206Y0230728D02*
Y0234272D01*
X0204228Y02425D02*
X0207772D01*
X0206Y0240728D02*
Y0244272D01*
X0204228Y02525D02*
X0207772D01*
X0206Y0250728D02*
Y0254272D01*
X0204728Y0386D02*
X0208272D01*
X02065Y0384228D02*
Y0387772D01*
X0204728Y0396D02*
X0208272D01*
X02065Y0394228D02*
Y0397772D01*
X0267228Y0377D02*
X0270772D01*
X0269Y0375228D02*
Y0378772D01*
X0267228Y0367D02*
X0270772D01*
X0269Y0365228D02*
Y0368772D01*
X0267228Y0357D02*
X0270772D01*
X0269Y0355228D02*
Y0358772D01*
X0267228Y0347D02*
X0270772D01*
X0269Y0345228D02*
Y0348772D01*
X0008228Y02955D02*
X0011772D01*
X001Y0293728D02*
Y0297272D01*
X0008228Y02855D02*
X0011772D01*
X001Y0283728D02*
Y0287272D01*
X0008228Y02755D02*
X0011772D01*
X001Y0273728D02*
Y0277272D01*
X0008228Y02655D02*
X0011772D01*
X001Y0263728D02*
Y0267272D01*
X013975Y0176D02*
X014325D01*
X01415Y017425D02*
Y017775D01*
X014025Y0128D02*
X014375D01*
X0142Y012625D02*
Y012975D01*
X02109Y01055D02*
X02141D01*
X02125Y01039D02*
Y01071D01*
X02209Y01055D02*
X02241D01*
X02225Y01039D02*
Y01071D01*
X02309Y01055D02*
X02341D01*
X02325Y01039D02*
Y01071D01*
X01729Y0106D02*
X01761D01*
X01745Y01044D02*
Y01076D01*
X01829Y0106D02*
X01861D01*
X01845Y01044D02*
Y01076D01*
X01929Y0106D02*
X01961D01*
X01945Y01044D02*
Y01076D01*
X018675Y0176D02*
X019025D01*
X01885Y017425D02*
Y017775D01*
X018725Y0128D02*
X019075D01*
X0189Y012625D02*
Y012975D01*
X0210125Y014845D02*
X0213875D01*
X0212Y0146575D02*
Y0150325D01*
X0240425Y01485D02*
X0243575D01*
X0242Y0146925D02*
Y0150075D01*
M02*
