M48
;Layer_Color=9474304
;FILE_FORMAT=2:4
INCH,TZ
;TYPE=PLATED
T1F00S00C0.0315
T2F00S00C0.0320
T3F00S00C0.0350
T4F00S00C0.0354
T5F00S00C0.0375
T6F00S00C0.0400
T7F00S00C0.0402
T8F00S00C0.0450
T9F00S00C0.0550
T10F00S00C0.0700
%
T01
X24200Y14850
T02
X22250Y10550
X23250
X21250
X19450Y10600
X18450
X17450
T03
X12400Y10750
X12700Y12800
X14200
X15850
X17400
X18900
X18850Y17600
X17350
X15800
X14150
X12650
X15800Y21400
Y22400
X15400Y10750
X5800Y21400
Y22400
Y23400
Y24400
Y25400
Y26400
Y27400
Y28400
Y29400
Y30400
Y31400
Y32400
Y33400
Y34400
Y35400
Y36400
Y37400
X15800Y35400
Y34400
Y33400
Y32400
Y31400
Y30400
Y29400
Y28400
Y27400
Y26400
Y25400
Y24400
Y23400
X5800Y38400
Y39400
T04
X20550Y1500
X21550
Y6700
X20550
X22550
X23550
X24550
Y1500
X23550
X22550
X20600Y22250
X17450Y22400
Y21400
X4100
Y22400
Y23400
Y24400
Y25400
Y26400
Y27400
Y28400
Y29400
Y30400
Y31400
Y32400
Y33400
Y34400
Y35400
Y36400
Y37400
X1000Y29550
Y28550
Y27550
Y26550
X17450Y26400
Y27400
Y28400
Y29400
Y30400
Y31400
Y32400
Y33400
Y34400
Y35400
Y36400
Y37400
X20650Y37200
Y36200
Y35200
Y34200
Y33200
Y32200
Y31200
Y30200
X20600Y25250
Y24250
Y23250
X17450Y23400
Y24400
Y25400
X23800Y30300
Y31300
Y32300
Y33300
Y34300
Y35300
Y36300
Y37300
X26900Y37700
Y36700
Y35700
Y34700
X26950Y32900
Y31900
Y30900
Y29900
X20650Y38600
Y39600
X17450Y39400
Y38400
X4100
Y39400
T05
X21200Y14845
T06
X26800Y2100
Y3100
Y4200
Y5200
T07
X15800Y36400
Y37400
Y38400
Y39400
T08
X10850Y11950
X6050Y16750
T09
X8450Y10950
X10850Y16750
X6050Y11950
T10
X2250Y1750
X17950
Y8750
X2250
X3350Y11050
Y13050
Y15100
Y17100
M30
